<?xml version="1.0" standalone="no"?>
<!DOCTYPE svg PUBLIC "-//W3C//DTD SVG 1.1//EN" "http://www.w3.org/Graphics/SVG/1.1/DTD/svg11.dtd" >
<svg xmlns="http://www.w3.org/2000/svg">
<metadata>
Created by FontForge 20120731 at Thu Aug  4 11:23:38 2016
 By admin
</metadata>
<defs>
<font id="iconfont" horiz-adv-x="1024" >
  <font-face 
    font-family="iconfont"
    font-weight="500"
    font-stretch="normal"
    units-per-em="1024"
    panose-1="2 0 6 3 0 0 0 0 0 0"
    ascent="896"
    descent="-128"
    x-height="792"
    bbox="-0.37037 -128.5 1025 896.25"
    underline-thickness="50"
    underline-position="-100"
    unicode-range="U+0078-E6B6"
  />
<missing-glyph horiz-adv-x="374" 
d="M34 0v682h272v-682h-272zM68 34h204v614h-204v-614z" />
    <glyph glyph-name=".notdef" horiz-adv-x="374" 
d="M34 0v682h272v-682h-272zM68 34h204v614h-204v-614z" />
    <glyph glyph-name=".null" horiz-adv-x="0" 
 />
    <glyph glyph-name="nonmarkingreturn" horiz-adv-x="341" 
 />
    <glyph glyph-name="x" unicode="x" horiz-adv-x="1001" 
d="M281 543q-27 -1 -53 -1h-83q-18 0 -36.5 -6t-32.5 -18.5t-23 -32t-9 -45.5v-76h912v41q0 16 -0.5 30t-0.5 18q0 13 -5 29t-17 29.5t-31.5 22.5t-49.5 9h-133v-97h-438v97zM955 310v-52q0 -23 0.5 -52t0.5 -58t-10.5 -47.5t-26 -30t-33 -16t-31.5 -4.5q-14 -1 -29.5 -0.5
t-29.5 0.5h-32l-45 128h-439l-44 -128h-29h-34q-20 0 -45 1q-25 0 -41 9.5t-25.5 23t-13.5 29.5t-4 30v167h911zM163 247q-12 0 -21 -8.5t-9 -21.5t9 -21.5t21 -8.5q13 0 22 8.5t9 21.5t-9 21.5t-22 8.5zM316 123q-8 -26 -14 -48q-5 -19 -10.5 -37t-7.5 -25t-3 -15t1 -14.5
t9.5 -10.5t21.5 -4h37h67h81h80h64h36q23 0 34 12t2 38q-5 13 -9.5 30.5t-9.5 34.5q-5 19 -11 39h-368zM336 498v228q0 11 2.5 23t10 21.5t20.5 15.5t34 6h188q31 0 51.5 -14.5t20.5 -52.5v-227h-327z" />
    <glyph glyph-name="uniE600" unicode="&#xe600;" 
d="M267 887q-10 -10 -10 -23t10 -23l482 -457l-482 -457q-10 -10 -10 -23t10 -23q10 -9 24 -9t24 9l506 480q10 10 10 23t-10 23l-506 480q-10 9 -24 9t-24 -9z" />
    <glyph glyph-name="uniE601" unicode="&#xe601;" 
d="M757 887q10 -10 10 -23t-10 -23l-482 -457l482 -457q10 -10 10 -23t-10 -23q-10 -9 -24 -9t-24 9l-506 480q-10 10 -10 23t10 23l506 480q10 9 24 9t24 -9z" />
    <glyph glyph-name="uniE602" unicode="&#xe602;" horiz-adv-x="1025" 
d="M1015 138q-10 -10 -23 -10t-23 10l-457 482l-457 -482q-10 -10 -23 -10t-23 10q-9 10 -9 24t9 24l480 506q10 10 23 10t23 -10l480 -506q9 -10 9 -24t-9 -24z" />
    <glyph glyph-name="uniE603" unicode="&#xe603;" horiz-adv-x="1025" 
d="M1015 692q-10 10 -23 10t-23 -10l-457 -482l-457 482q-10 10 -23 10t-23 -10q-9 -10 -9 -24t9 -24l480 -506q10 -10 23 -10t23 10l480 506q9 10 9 24t-9 24z" />
    <glyph glyph-name="uniE604" unicode="&#xe604;" 
d="M512 896q-139 0 -257 -68.5t-186.5 -186.5t-68.5 -257t68.5 -257t186.5 -186.5t257 -68.5t257 68.5t186.5 186.5t68.5 257t-68.5 257t-186.5 186.5t-257 68.5zM603 83l-305 285q-6 7 -6 16t6 16l305 285q11 10 24 4.5t13 -20.5v-571q0 -14 -13 -19.5t-24 4.5z" />
    <glyph glyph-name="uniE605" unicode="&#xe605;" 
d="M512 896q-139 0 -257 -68.5t-186.5 -186.5t-68.5 -257t68.5 -257t186.5 -186.5t257 -68.5t257 68.5t186.5 186.5t68.5 257t-68.5 257t-186.5 186.5t-257 68.5zM727 368l-305 -285q-11 -10 -24 -4.5t-13 19.5v572q0 14 13 19.5t24 -4.5l305 -285q6 -7 6 -16t-6 -16z" />
    <glyph glyph-name="uniE606" unicode="&#xe606;" 
d="M512 896q-139 0 -257 -68.5t-186.5 -186.5t-68.5 -257t68.5 -257t186.5 -186.5t257 -68.5t257 68.5t186.5 186.5t68.5 257t-68.5 257t-186.5 186.5t-257 68.5zM798 257h-572q-14 0 -19.5 13t4.5 24l285 305q7 6 16 6t16 -6l285 -305q10 -11 4.5 -24t-19.5 -13z" />
    <glyph glyph-name="uniE607" unicode="&#xe607;" 
d="M512 896q-139 0 -257 -68.5t-186.5 -186.5t-68.5 -257t68.5 -257t186.5 -186.5t257 -68.5t257 68.5t186.5 186.5t68.5 257t-68.5 257t-186.5 186.5t-257 68.5zM813 475l-285 -305q-7 -7 -16 -7t-16 7l-285 305q-10 10 -4.5 23.5t19.5 13.5h572q14 0 19.5 -13.5
t-4.5 -23.5z" />
    <glyph glyph-name="uniE608" unicode="&#xe608;" horiz-adv-x="1025" 
d="M567 826l447 -419q10 -9 10 -22.5t-10 -23.5l-447 -419q-15 -14 -34.5 -6t-19.5 29v838q0 21 19.5 29.5t34.5 -6.5zM54 826l448 -419q9 -9 9 -22.5t-9 -23.5l-448 -419q-15 -14 -34.5 -6t-19.5 29v838q0 21 19.5 29.5t34.5 -6.5z" />
    <glyph glyph-name="uniE609" unicode="&#xe609;" horiz-adv-x="1025" 
d="M457 826l-447 -419q-10 -9 -10 -22.5t10 -23.5l447 -419q15 -14 34.5 -6t19.5 29v838q0 21 -19.5 29.5t-34.5 -6.5zM970 826l-447 -419q-10 -9 -10 -22.5t10 -23.5l447 -419q15 -14 34.5 -6t19.5 29v838q0 21 -19.5 29.5t-34.5 -6.5z" />
    <glyph glyph-name="uniE60A" unicode="&#xe60a;" 
d="M261 886l558 -476q12 -11 12 -26t-12 -26l-558 -476q-19 -16 -43.5 -7t-24.5 33v952q0 24 24.5 33t43.5 -7z" />
    <glyph glyph-name="uniE60B" unicode="&#xe60b;" 
d="M512 832q91 0 174 -35q81 -34 143 -96t96 -143q35 -83 35 -174t-35 -174q-34 -81 -96 -143t-143 -96q-83 -35 -174 -35t-174 35q-81 34 -143 96t-96 143q-35 83 -35 174t35 174q34 81 96 143t143 96q83 35 174 35zM512 896q-139 0 -257 -68.5t-186.5 -186.5t-68.5 -257
t68.5 -257t186.5 -186.5t257 -68.5t257 68.5t186.5 186.5t68.5 257t-68.5 257t-186.5 186.5t-257 68.5zM603 83l-305 285q-6 7 -6 16t6 16l305 285q11 10 24 4.5t13 -20.5v-571q0 -14 -13 -19.5t-24 4.5z" />
    <glyph glyph-name="uniE60C" unicode="&#xe60c;" 
d="M512 832q91 0 174 -35q81 -34 143 -96t96 -143q35 -83 35 -174t-35 -174q-34 -81 -96 -143t-143 -96q-83 -35 -174 -35t-174 35q-81 34 -143 96t-96 143q-35 83 -35 174t35 174q34 81 96 143t143 96q83 35 174 35zM512 896q-139 0 -257 -68.5t-186.5 -186.5t-68.5 -257
t68.5 -257t186.5 -186.5t257 -68.5t257 68.5t186.5 186.5t68.5 257t-68.5 257t-186.5 186.5t-257 68.5zM798 257h-572q-14 0 -19.5 13t4.5 24l285 305q7 6 16 6t16 -6l285 -305q10 -11 4.5 -24t-19.5 -13z" />
    <glyph glyph-name="uniE60D" unicode="&#xe60d;" 
d="M512 832q91 0 174 -35q81 -34 143 -96t96 -143q35 -83 35 -174t-35 -174q-34 -81 -96 -143t-143 -96q-83 -35 -174 -35t-174 35q-81 34 -143 96t-96 143q-35 83 -35 174t35 174q34 81 96 143t143 96q83 35 174 35zM512 896q-139 0 -257 -68.5t-186.5 -186.5t-68.5 -257
t68.5 -257t186.5 -186.5t257 -68.5t257 68.5t186.5 186.5t68.5 257t-68.5 257t-186.5 186.5t-257 68.5zM727 368l-305 -285q-11 -10 -24 -4.5t-13 19.5v572q0 14 13 19.5t24 -4.5l305 -285q6 -7 6 -16t-6 -16z" />
    <glyph glyph-name="uniE60E" unicode="&#xe60e;" 
d="M512 832q91 0 174 -35q81 -34 143 -96t96 -143q35 -83 35 -174t-35 -174q-34 -81 -96 -143t-143 -96q-83 -35 -174 -35t-174 35q-81 34 -143 96t-96 143q-35 83 -35 174t35 174q34 81 96 143t143 96q83 35 174 35zM512 896q-139 0 -257 -68.5t-186.5 -186.5t-68.5 -257
t68.5 -257t186.5 -186.5t257 -68.5t257 68.5t186.5 186.5t68.5 257t-68.5 257t-186.5 186.5t-257 68.5zM813 475l-285 -305q-7 -7 -16 -7t-16 7l-285 305q-10 10 -4.5 23.5t19.5 13.5h572q14 0 19.5 -13.5t-4.5 -23.5z" />
    <glyph glyph-name="uniE60F" unicode="&#xe60f;" 
d="M763 886l-558 -476q-12 -11 -12 -26t12 -26l558 -476q19 -16 43.5 -7t24.5 33v952q0 24 -24.5 33t-43.5 -7z" />
    <glyph glyph-name="uniE610" unicode="&#xe610;" 
d="M1014 133l-476 558q-11 12 -26 12t-26 -12l-476 -558q-16 -19 -7 -43.5t33 -24.5h952q24 0 33 24.5t-7 43.5z" />
    <glyph glyph-name="uniE611" unicode="&#xe611;" 
d="M1014 635l-476 -558q-11 -12 -26 -12t-26 12l-476 558q-16 19 -7 43.5t33 24.5h952q24 0 33 -24.5t-7 -43.5z" />
    <glyph glyph-name="uniE612" unicode="&#xe612;" 
d="M51 823l420 -416q7 -8 9 -18v411q0 21 18 29.5t33 -6.5l420 -416q9 -9 9 -22.5t-9 -23.5l-420 -416q-15 -15 -33 -6.5t-18 29.5v411q-2 -10 -9 -18l-420 -416q-14 -15 -32.5 -6.5t-18.5 29.5v832q0 21 18.5 29.5t32.5 -6.5zM992 832q13 0 22.5 -9.5t9.5 -22.5v-832
q0 -13 -9.5 -22.5t-22.5 -9.5t-22.5 9.5t-9.5 22.5v832q0 13 9.5 22.5t22.5 9.5z" />
    <glyph glyph-name="uniE613" unicode="&#xe613;" 
d="M973 823l-420 -416q-7 -8 -9 -18v411q0 21 -18 29.5t-33 -6.5l-419 -416q-10 -9 -10 -22.5t10 -23.5l419 -416q15 -15 33 -6.5t18 29.5v411q2 -10 9 -18l420 -416q14 -15 32.5 -6.5t18.5 29.5v832q0 21 -18.5 29.5t-32.5 -6.5zM32 832q-13 0 -22.5 -9.5t-9.5 -22.5v-832
q0 -13 9.5 -22.5t22.5 -9.5t22.5 9.5t9.5 22.5v832q0 13 -9.5 22.5t-22.5 9.5z" />
    <glyph glyph-name="uniE614" unicode="&#xe614;" 
d="M225 896q13 0 22.5 -10.5t9.5 -26.5v-475q0 15 12 26l558 476q19 16 43.5 7t24.5 -33v-952q0 -24 -24.5 -33t-43.5 7l-558 476q-12 11 -12 26v-475q0 -16 -9.5 -26.5t-22.5 -10.5t-22.5 10.5t-9.5 26.5v951q0 15 9.5 25.5t22.5 10.5z" />
    <glyph glyph-name="uniE615" unicode="&#xe615;" 
d="M863 896q-13 0 -22.5 -10.5t-9.5 -26.5v-475q0 15 -12 26l-558 476q-19 16 -43.5 7t-24.5 -33v-952q0 -24 24.5 -33t43.5 7l558 476q12 10 12 26v-475q0 -16 9.5 -26.5t22.5 -10.5t22.5 10.5t9.5 26.5v951q0 15 -9.5 25.5t-22.5 10.5z" />
    <glyph glyph-name="uniE616" unicode="&#xe616;" 
d="M512 832q91 0 174 -35q81 -34 143 -96t96 -143q35 -83 35 -174t-35 -174q-34 -81 -96 -143t-143 -96q-83 -35 -174 -35t-174 35q-81 34 -143 96t-96 143q-35 83 -35 174t35 174q34 81 96 143t143 96q83 35 174 35zM512 896q-139 0 -257 -68.5t-186.5 -186.5t-68.5 -257
t68.5 -257t186.5 -186.5t257 -68.5t257 68.5t186.5 186.5t68.5 257t-68.5 257t-186.5 186.5t-257 68.5zM694 406l-256 258q-10 9 -23 9t-23 -9q-9 -9 -9 -22.5t9 -22.5l235 -236l-234 -233q-9 -9 -9 -22.5t9 -22.5q10 -10 23 -10t23 10l256 256q9 9 9 22.5t-10 22.5z" />
    <glyph glyph-name="uniE617" unicode="&#xe617;" 
d="M512 832q91 0 174 -35q81 -34 143 -96t96 -143q35 -83 35 -174t-35 -174q-34 -81 -96 -143t-143 -96q-83 -35 -174 -35t-174 35q-81 34 -143 96t-96 143q-35 83 -35 174t35 174q34 81 96 143t143 96q83 35 174 35zM512 896q-139 0 -257 -68.5t-186.5 -186.5t-68.5 -257
t68.5 -257t186.5 -186.5t257 -68.5t257 68.5t186.5 186.5t68.5 257t-68.5 257t-186.5 186.5t-257 68.5zM534 201l258 257q9 10 9 23t-9 23q-10 9 -23 9t-23 -9l-235 -235l-233 233q-10 10 -23 10t-23 -10q-9 -9 -9 -22t9 -23l256 -256q10 -9 23 -9t23 9z" />
    <glyph glyph-name="uniE618" unicode="&#xe618;" 
d="M512 832q91 0 174 -35q81 -34 143 -96t96 -143q35 -83 35 -174t-35 -174q-34 -81 -96 -143t-143 -96q-83 -35 -174 -35t-174 35q-81 34 -143 96t-96 143q-35 83 -35 174t35 174q34 81 96 143t143 96q83 35 174 35zM512 896q-139 0 -257 -68.5t-186.5 -186.5t-68.5 -257
t68.5 -257t186.5 -186.5t257 -68.5t257 68.5t186.5 186.5t68.5 257t-68.5 257t-186.5 186.5t-257 68.5zM534 566l258 -256q9 -10 9 -23t-9 -23q-10 -9 -23 -9t-23 9l-235 235l-233 -234q-10 -9 -23 -9t-23 9q-9 10 -9 23t9 22l256 256q10 10 23 10t23 -10z" />
    <glyph glyph-name="uniE619" unicode="&#xe619;" 
d="M512 832q91 0 174 -35q81 -34 143 -96t96 -143q35 -83 35 -174t-35 -174q-34 -81 -96 -143t-143 -96q-83 -35 -174 -35t-174 35q-81 34 -143 96t-96 143q-35 83 -35 174t35 174q34 81 96 143t143 96q83 35 174 35zM512 896q-139 0 -257 -68.5t-186.5 -186.5t-68.5 -257
t68.5 -257t186.5 -186.5t257 -68.5t257 68.5t186.5 186.5t68.5 257t-68.5 257t-186.5 186.5t-257 68.5zM330 406l257 258q10 9 23 9t23 -9q9 -9 9 -22.5t-9 -22.5l-235 -236l234 -233q9 -9 9 -22.5t-9 -22.5q-10 -10 -23 -10t-23 10l-256 256q-9 9 -9 22.5t9 22.5z" />
    <glyph glyph-name="uniE61A" unicode="&#xe61a;" 
d="M512 896q-139 0 -257 -68.5t-186.5 -186.5t-68.5 -257t68.5 -257t186.5 -186.5t257 -68.5t257 68.5t186.5 186.5t68.5 257t-68.5 257t-186.5 186.5t-257 68.5zM695 361l-256 -256q-10 -10 -23 -10t-22.5 9.5t-9.5 23t9 22.5l234 233l-235 236q-9 9 -9 22.5t9.5 22.5
t22.5 9t23 -9l256 -258q10 -9 10 -22.5t-9 -22.5z" />
    <glyph glyph-name="uniE61B" unicode="&#xe61b;" 
d="M512 896q-139 0 -257 -68.5t-186.5 -186.5t-68.5 -257t68.5 -257t186.5 -186.5t257 -68.5t257 68.5t186.5 186.5t68.5 257t-68.5 257t-186.5 186.5t-257 68.5zM632 150q9 -9 9 -22.5t-9.5 -23t-22.5 -9.5t-23 10l-256 256q-9 9 -9 22.5t9 22.5l257 258q10 9 23 9t22.5 -9
t9.5 -22.5t-9 -22.5l-235 -236z" />
    <glyph glyph-name="uniE61C" unicode="&#xe61c;" 
d="M512 896q-139 0 -257 -68.5t-186.5 -186.5t-68.5 -257t68.5 -257t186.5 -186.5t257 -68.5t257 68.5t186.5 186.5t68.5 257t-68.5 257t-186.5 186.5t-257 68.5zM791.5 264.5q-9.5 -9.5 -22.5 -9.5t-23 9l-235 235l-233 -234q-10 -9 -23 -9t-22.5 9.5t-9.5 22.5t9 22
l256 256q10 10 23 10t23 -10l258 -256q9 -10 9 -23t-9.5 -22.5z" />
    <glyph glyph-name="uniE61D" unicode="&#xe61d;" 
d="M512 896q-139 0 -257 -68.5t-186.5 -186.5t-68.5 -257t68.5 -257t186.5 -186.5t257 -68.5t257 68.5t186.5 186.5t68.5 257t-68.5 257t-186.5 186.5t-257 68.5zM792 458l-258 -257q-10 -9 -23 -9t-23 9l-256 256q-9 10 -9 23t9.5 22.5t22.5 9.5t23 -10l233 -233l235 235
q10 9 23 9t22.5 -9.5t9.5 -22.5t-9 -23z" />
    <glyph glyph-name="uniE61E" unicode="&#xe61e;" 
d="M448 188l231 196l-231 196v-392zM512 896q-139 0 -257 -68.5t-186.5 -186.5t-68.5 -257t68.5 -257t186.5 -186.5t257 -68.5t257 68.5t186.5 186.5t68.5 257t-68.5 257t-186.5 186.5t-257 68.5zM760 368l-335 -285q-7 -6 -16.5 -6t-17 6t-7.5 16v571q0 9 7.5 15.5t17 6.5
t16.5 -7l335 -285q8 -7 8 -16t-8 -16z" />
    <glyph glyph-name="uniE61F" unicode="&#xe61f;" 
d="M512 832q91 0 174 -35q81 -34 143 -96t96 -143q35 -83 35 -174t-35 -174q-34 -81 -96 -143t-143 -96q-83 -35 -174 -35t-174 35q-81 34 -143 96t-96 143q-35 83 -35 174t35 174q34 81 96 143t143 96q83 35 174 35zM512 896q-139 0 -257 -68.5t-186.5 -186.5t-68.5 -257
t68.5 -257t186.5 -186.5t257 -68.5t257 68.5t186.5 186.5t68.5 257t-68.5 257t-186.5 186.5t-257 68.5zM448 580l231 -196l-231 -196v392zM408 692q-9 0 -16.5 -6.5t-7.5 -15.5v-572q0 -9 7.5 -15t17 -6t16.5 6l335 285q8 7 8 16t-8 16l-335 285q-7 7 -17 7z" />
    <glyph glyph-name="uniE620" unicode="&#xe620;" 
d="M282 167q9 9 9 22.5t-9 22.5l-172 172h882q13 0 22.5 9.5t9.5 22.5t-9.5 22.5t-22.5 9.5h-883l172 172q10 9 10 22.5t-10 22.5q-9 10 -22.5 10t-22.5 -10l-227 -226q-9 -9 -9 -22.5t9 -22.5l228 -227q9 -9 22.5 -9t22.5 9z" />
    <glyph glyph-name="uniE621" unicode="&#xe621;" horiz-adv-x="1025" 
d="M742 167q-9 9 -9 22.5t9 22.5l172 172h-882q-13 0 -22.5 9.5t-9.5 22.5t9.5 22.5t22.5 9.5h883l-172 172q-10 9 -10 22.5t10 22.5q9 10 22.5 10t22.5 -10l227 -226q9 -9 9 -22.5t-9 -22.5l-228 -227q-9 -9 -22.5 -9t-22.5 9z" />
    <glyph glyph-name="uniE622" unicode="&#xe622;" 
d="M793 614q-9 -9 -22.5 -9t-22.5 9l-172 172v-882q0 -13 -9.5 -22.5t-22.5 -9.5t-22.5 9.5t-9.5 22.5v883l-172 -172q-9 -10 -22.5 -10t-22.5 10q-10 9 -10 22.5t10 22.5l226 227q9 9 22.5 9t22.5 -9l227 -228q9 -9 9 -22.5t-9 -22.5z" />
    <glyph glyph-name="uniE623" unicode="&#xe623;" 
d="M793 154q-9 9 -22.5 9t-22.5 -9l-172 -172v882q0 13 -9.5 22.5t-22.5 9.5t-22.5 -9.5t-9.5 -22.5v-883l-172 172q-9 10 -22.5 10t-22.5 -10q-10 -9 -10 -22.5t10 -22.5l226 -227q9 -9 22.5 -9t22.5 9l227 228q9 9 9 22.5t-9 22.5z" />
    <glyph glyph-name="uniE624" unicode="&#xe624;" 
d="M630 887q10 -10 10 -23t-10 -23l-482 -457l482 -457q10 -10 10 -23t-10 -23q-10 -9 -24 -9t-24 9l-506 480q-10 10 -10 23t10 23l506 480q10 9 24 9t24 -9zM886 887q10 -10 10 -23t-10 -23l-482 -457l482 -457q10 -10 10 -23t-10 -23q-10 -9 -24 -9t-24 9l-506 480
q-10 10 -10 23t10 23l506 480q10 9 24 9t24 -9z" />
    <glyph glyph-name="uniE625" unicode="&#xe625;" 
d="M332 887q-10 -10 -10 -23t10 -23l482 -457l-482 -457q-10 -10 -10 -23t10 -23q10 -9 24 -9t24 9l506 480q10 10 10 23t-10 23l-506 480q-10 9 -24 9t-24 -9zM76 887q-10 -10 -10 -23t10 -23l482 -457l-482 -457q-10 -10 -10 -23t10 -23q10 -9 24 -9t24 9l506 480
q10 10 10 23t-10 23l-506 480q-10 9 -24 9t-24 -9z" />
    <glyph glyph-name="uniE626" unicode="&#xe626;" 
d="M993 384q-12 0 -20.5 -8t-9.5 -20q-4 -77 -34 -148q-35 -81 -97.5 -143.5t-143.5 -96.5q-83 -36 -175.5 -36t-175.5 36q-82 34 -144.5 96.5t-96.5 143.5q-35 84 -35 176t35 176q35 81 97 143.5t144 96.5q83 36 175 36q112 0 211 -52q58 -30 106 -77l-118 21
q-13 2 -23.5 -5.5t-13.5 -20.5q-2 -13 5.5 -24t20.5 -13l189 -34q13 -2 24 5.5t13 20.5l34 189q2 13 -5.5 23.5t-20.5 13.5q-13 2 -24 -5.5t-13 -20.5l-20 -113q-56 56 -126 93q-111 59 -239 59q-104 0 -199 -40q-92 -39 -162 -110q-71 -71 -110 -163q-41 -95 -41 -199
t41 -199q39 -92 109 -163q72 -71 163 -110q95 -40 199 -40q105 0 200 40q92 39 162 110q71 71 110 163q34 80 39 167q1 13 -8 22.5t-22 9.5z" />
    <glyph glyph-name="uniE627" unicode="&#xe627;" 
d="M887 696l-191 191q-10 9 -23 9t-23 -9q-9 -10 -9 -23t9 -23l137 -137l-755 1q-13 0 -22.5 -9.5t-9.5 -22.5v-256q0 -13 9.5 -22.5t22.5 -9.5t22.5 9.5t9.5 22.5v223h722l-135 -135q-10 -10 -10 -23t10 -23q9 -9 22.5 -9t22.5 9l191 191q9 10 9 23t-9 23zM137 72l191 -191
q10 -9 23 -9t23 9q9 10 9 23t-9 23l-137 137l755 -1q13 0 22.5 9.5t9.5 22.5v256q0 13 -9.5 22.5t-22.5 9.5t-22.5 -9.5t-9.5 -22.5v-223h-722l136 135q9 10 9 23t-9 23q-10 9 -23 9t-23 -9l-191 -191q-9 -10 -9 -23t9 -23z" />
    <glyph glyph-name="uniE628" unicode="&#xe628;" 
d="M9 -119q10 -9 23 -9t23 9l335 335v-243q0 -13 9 -22.5t23 -9.5q13 0 22.5 9.5t9.5 22.5v322q0 13 -9.5 22.5t-22.5 9.5l-320 -1q-13 0 -22.5 -9.5t-9.5 -22.5t9.5 -22.5t22.5 -9.5h243l-336 -335q-9 -10 -9 -23t9 -23zM1015 887q-10 9 -23 9t-23 -9l-335 -335v243
q0 13 -9 22.5t-23 9.5q-13 0 -22.5 -9.5t-9.5 -22.5v-322q0 -13 9.5 -22.5t22.5 -9.5l320 1q13 0 22.5 9.5t9.5 22.5t-9.5 22.5t-22.5 9.5h-243l336 335q9 10 9 23t-9 23z" />
    <glyph glyph-name="uniE629" unicode="&#xe629;" 
d="M445 317q-10 10 -23 10t-23 -10l-335 -335v243q0 14 -9 23t-23 9q-13 0 -22.5 -9t-9.5 -23v-321q0 -13 9.5 -22.5t22.5 -9.5h320q13 0 22.5 9.5t9.5 22.5q0 14 -9.5 23t-22.5 9h-243l336 336q9 9 9 22.5t-9 22.5zM580 451q9 -10 22.5 -10t22.5 10l335 335v-243
q0 -14 9.5 -23t22.5 -9t22.5 9t9.5 23v321q0 13 -9.5 22.5t-22.5 9.5h-320q-13 0 -22.5 -9.5t-9.5 -22.5q0 -14 9.5 -23t22.5 -9h243l-335 -336q-10 -9 -10 -22.5t10 -22.5z" />
    <glyph glyph-name="uniE62A" unicode="&#xe62a;" 
d="M896 673q0 13 -9 22.5t-23 9.5l-755 -1l137 137q9 10 9 23t-9 23q-9 9 -22.5 9t-22.5 -9l-192 -191q-9 -10 -9 -23t9 -23l194 -193q9 -9 22.5 -9t22.5 9q9 10 9 23t-9 23l-138 137h722v-704h-352q-13 0 -22.5 -9.5t-9.5 -22.5t9.5 -22.5t22.5 -9.5h384q14 0 23 9.5
t9 22.5v769z" />
    <glyph glyph-name="uniE62B" unicode="&#xe62b;" 
d="M203 -73l482 457l-482 457q-10 10 -10 23t10 22.5t24 9.5t24 -9l506 -480q10 -10 10 -23t-10 -23l-506 -480q-10 -9 -24 -9t-24 9.5t-10 22.5t10 23zM800 896q13 0 22.5 -9.5t9.5 -22.5v-960q0 -13 -9.5 -22.5t-22.5 -9.5t-22.5 9.5t-9.5 22.5v960q0 13 9.5 22.5
t22.5 9.5z" />
    <glyph glyph-name="uniE62C" unicode="&#xe62c;" 
d="M822 -73l-482 457l482 457q10 10 10 23t-10 22.5t-24 9.5t-24 -9l-506 -480q-10 -10 -10 -23t10 -23l506 -480q10 -9 24 -9t24 9.5t10 22.5t-10 23zM225 896q-13 0 -22.5 -9.5t-9.5 -22.5v-960q0 -13 9.5 -22.5t22.5 -9.5t22.5 9.5t9.5 22.5v960q0 13 -9.5 22.5
t-22.5 9.5z" />
    <glyph glyph-name="uniE62D" unicode="&#xe62d;" 
d="M874 746q-9 9 -22.5 9t-22.5 -9l-317 -317l-317 317q-9 9 -22.5 9t-22.5 -9t-9 -22.5t9 -22.5l317 -317l-317 -317q-9 -9 -9 -22.5t9 -22.5t22.5 -9t22.5 9l317 317l317 -317q9 -9 22.5 -9t22.5 9t9 22.5t-9 22.5l-317 317l317 317q9 9 9 22.5t-9 22.5z" />
    <glyph glyph-name="uniE62E" unicode="&#xe62e;" 
d="M1015 804q-10 9 -23 9t-23 -9l-644 -648l-269 267q-10 10 -23 10t-23 -10q-9 -9 -9 -22.5t9 -22.5l292 -290q10 -9 23 -9t23 9l667 671q9 9 9 22.5t-9 22.5z" />
    <glyph glyph-name="uniE62F" unicode="&#xe62f;" 
d="M512 896q-104 0 -199 -41t-163 -109t-109 -163t-41 -199t41 -199t109 -163t163 -109t199 -41t199 41t163 109t109 163t41 199t-41 199t-109 163t-163 109t-199 41zM821 520l-415 -405q-10 -9 -23 -9t-23 9l-158 152q-10 9 -10 22.5t10 22.5q9 10 22.5 10t22.5 -10
l136 -129l393 382q9 9 22.5 9t22.5 -9q10 -9 10 -22.5t-10 -22.5z" />
    <glyph glyph-name="uniE630" unicode="&#xe630;" 
d="M821 565q-9 9 -22.5 9t-22.5 -9l-393 -382l-136 129q-9 10 -22.5 10t-22.5 -10q-10 -9 -10 -22.5t10 -22.5l158 -152q10 -9 23 -9t23 9l415 405q10 9 10 22.5t-10 22.5zM512 832q91 0 174 -36q80 -33 142 -96q63 -62 96 -142q36 -83 36 -174t-36 -174q-33 -80 -96 -142
q-62 -63 -142 -96q-83 -36 -174 -36t-174 36q-80 33 -143 96q-61 61 -95 142q-36 83 -36 174t36 174q33 80 96 142q62 63 142 96q83 36 174 36zM512 896q-104 0 -199 -41t-163 -109t-109 -163t-41 -199t41 -199t109 -163t163 -109t199 -41t199 41t163 109t109 163t41 199
t-41 199t-109 163t-163 109t-199 41z" />
    <glyph glyph-name="uniE631" unicode="&#xe631;" 
d="M512 896q-139 0 -257 -68.5t-186.5 -186.5t-68.5 -257t68.5 -257t186.5 -186.5t257 -68.5t257 68.5t186.5 186.5t68.5 257t-68.5 257t-186.5 186.5t-257 68.5zM753 193q9 -10 9.5 -23t-8.5 -23q-10 -9 -23 -9t-23 9l-196 192l-196 -192q-10 -9 -23 -9t-23 10
q-9 9 -9 22.5t10 22.5l195 191l-195 191q-9 10 -9.5 23t8.5 23q10 9 23 9t23 -9l196 -192l196 192q10 9 23 9t23 -10q9 -9 9 -22.5t-10 -22.5l-195 -191z" />
    <glyph glyph-name="uniE632" unicode="&#xe632;" 
d="M558 384l195 191q9 10 9.5 23t-8.5 23q-10 9 -23 9t-23 -9l-196 -192l-196 192q-10 9 -23 9t-23 -10q-9 -9 -9 -22.5t10 -22.5l195 -191l-195 -191q-9 -10 -9.5 -23t8.5 -23q10 -9 23 -9t23 9l196 192l196 -192q10 -9 23 -9t23 10q9 9 9 22.5t-10 22.5zM512 832
q91 0 174 -35q81 -34 143 -96t96 -143q35 -83 35 -174t-35 -174q-34 -81 -96 -143t-143 -96q-83 -35 -174 -35t-174 35q-81 34 -143 96t-96 143q-35 83 -35 174t35 174q34 81 96 143t143 96q83 35 174 35zM512 896q-139 0 -257 -68.5t-186.5 -186.5t-68.5 -257t68.5 -257
t186.5 -186.5t257 -68.5t257 68.5t186.5 186.5t68.5 257t-68.5 257t-186.5 186.5t-257 68.5z" />
    <glyph glyph-name="uniE633" unicode="&#xe633;" 
d="M479 64q-13 0 -22.5 9.5t-9.5 22.5v768q0 13 9.5 22.5t22.5 9.5t22.5 -9.5t9.5 -22.5v-768q0 -13 -9.5 -22.5t-22.5 -9.5zM478 -128q-13 0 -22.5 9.5t-9.5 22.5t9.5 22.5t22.5 9.5t22.5 -9.5t9.5 -22.5t-9.5 -22.5t-22.5 -9.5z" />
    <glyph glyph-name="uniE634" unicode="&#xe634;" 
d="M512 896q-139 0 -257 -68.5t-186.5 -186.5t-68.5 -257t68.5 -257t186.5 -186.5t257 -68.5t257 68.5t186.5 186.5t68.5 257t-68.5 257t-186.5 186.5t-257 68.5zM544 96q0 -13 -9.5 -22.5t-22.5 -9.5t-22.5 9.5t-9.5 22.5t9.5 22.5t22.5 9.5t22.5 -9.5t9.5 -22.5zM544 224
q0 -13 -9.5 -22.5t-22.5 -9.5t-22.5 9.5t-9.5 22.5v448q0 13 9.5 22.5t22.5 9.5t22.5 -9.5t9.5 -22.5v-448z" />
    <glyph glyph-name="uniE635" unicode="&#xe635;" 
d="M512 192q-13 0 -22.5 9.5t-9.5 22.5v448q0 13 9.5 22.5t22.5 9.5t22.5 -9.5t9.5 -22.5v-448q0 -13 -9.5 -22.5t-22.5 -9.5zM512 64q-13 0 -22.5 9.5t-9.5 22.5t9.5 22.5t22.5 9.5t22.5 -9.5t9.5 -22.5t-9.5 -22.5t-22.5 -9.5zM512 832q91 0 174 -35q81 -34 143 -96
t96 -143q35 -83 35 -174t-35 -174q-34 -81 -96 -143t-143 -96q-83 -35 -174 -35t-174 35q-81 34 -143 96t-96 143q-35 83 -35 174t35 174q34 81 96 143t143 96q83 35 174 35zM512 896q-139 0 -257 -68.5t-186.5 -186.5t-68.5 -257t68.5 -257t186.5 -186.5t257 -68.5
t257 68.5t186.5 186.5t68.5 257t-68.5 257t-186.5 186.5t-257 68.5z" />
    <glyph glyph-name="uniE636" unicode="&#xe636;" 
d="M480 896q13 0 22.5 -9.5t9.5 -22.5t-9.5 -22.5t-22.5 -9.5t-22.5 9.5t-9.5 22.5t9.5 22.5t22.5 9.5zM512 672q0 14 -9.5 23t-22.5 9h-32h-96q-13 0 -22.5 -9t-9.5 -23q0 -13 9.5 -22.5t22.5 -9.5h96v-704h-96q-13 0 -22.5 -9.5t-9.5 -22.5t9.5 -22.5t22.5 -9.5h96h64h95
q13 0 23 9.5t10 22.5t-10 22.5t-23 9.5h-95v736z" />
    <glyph glyph-name="uniE637" unicode="&#xe637;" 
d="M512 896q-139 0 -257 -68.5t-186.5 -186.5t-68.5 -257t68.5 -257t186.5 -186.5t257 -68.5t257 68.5t186.5 186.5t68.5 257t-68.5 257t-186.5 186.5t-257 68.5zM512 704q13 0 22.5 -9.5t9.5 -22.5t-9.5 -22.5t-22.5 -9.5t-22.5 9.5t-9.5 22.5t9.5 22.5t22.5 9.5zM608 64
h-66h-64h-62q-13 0 -22.5 9.5t-9.5 22.5t9.5 22.5t22.5 9.5h62v322h-62q-14 0 -23 9.5t-9 23t9 22.5t23 9h62h32q14 0 23 -9t9 -23v-354h66q13 0 22.5 -9.5t9.5 -22.5t-9.5 -22.5t-22.5 -9.5z" />
    <glyph glyph-name="uniE638" unicode="&#xe638;" 
d="M512 704q13 0 22.5 -9.5t9.5 -22.5t-9.5 -22.5t-22.5 -9.5t-22.5 9.5t-9.5 22.5t9.5 22.5t22.5 9.5zM608 128h-66v354q0 14 -9 23t-23 9h-32h-62q-14 0 -23 -9t-9 -22.5t9 -23t23 -9.5h62v-322h-62q-13 0 -22.5 -9.5t-9.5 -22.5t9.5 -22.5t22.5 -9.5h62h64h66
q13 0 22.5 9.5t9.5 22.5t-9.5 22.5t-22.5 9.5zM512 832q91 0 174 -35q81 -34 143 -96t96 -143q35 -83 35 -174t-35 -174q-34 -81 -96 -143t-143 -96q-83 -35 -174 -35t-174 35q-81 34 -143 96t-96 143q-35 83 -35 174t35 174q34 81 96 143t143 96q83 35 174 35zM512 896
q-139 0 -257 -68.5t-186.5 -186.5t-68.5 -257t68.5 -257t186.5 -186.5t257 -68.5t257 68.5t186.5 186.5t68.5 257t-68.5 257t-186.5 186.5t-257 68.5z" />
    <glyph glyph-name="uniE639" unicode="&#xe639;" 
d="M512 896q-139 0 -257 -68.5t-186.5 -186.5t-68.5 -257t68.5 -257t186.5 -186.5t257 -68.5t257 68.5t186.5 186.5t68.5 257t-68.5 257t-186.5 186.5t-257 68.5zM832 417q0 -13 -9.5 -22.5t-22.5 -9.5h-576q-13 0 -22.5 9.5t-9.5 22.5t9.5 22.5t22.5 9.5h576
q13 0 22.5 -9.5t9.5 -22.5z" />
    <glyph glyph-name="uniE63A" unicode="&#xe63a;" 
d="M512 832q91 0 174 -35q81 -34 143 -96t96 -143q35 -83 35 -174t-35 -174q-34 -81 -96 -143t-143 -96q-83 -35 -174 -35t-174 35q-81 34 -143 96t-96 143q-35 83 -35 174t35 174q34 81 96 143t143 96q83 35 174 35zM512 896q-139 0 -257 -68.5t-186.5 -186.5t-68.5 -257
t68.5 -257t186.5 -186.5t257 -68.5t257 68.5t186.5 186.5t68.5 257t-68.5 257t-186.5 186.5t-257 68.5zM800 385h-576q-13 0 -22.5 9.5t-9.5 22.5t9.5 22.5t22.5 9.5h576q13 0 22.5 -9.5t9.5 -22.5t-9.5 -22.5t-22.5 -9.5z" />
    <glyph glyph-name="uniE63B" unicode="&#xe63b;" 
d="M34 448h956q14 0 24 -9.5t10 -22.5t-10 -22.5t-24 -9.5h-956q-14 0 -24 9.5t-10 22.5t10 22.5t24 9.5z" />
    <glyph glyph-name="uniE63C" unicode="&#xe63c;" 
d="M512 832q91 0 174 -35q81 -34 143 -96t96 -143q35 -83 35 -174t-35 -174q-34 -81 -96 -143t-143 -96q-83 -35 -174 -35t-174 35q-81 34 -143 96t-96 143q-35 83 -35 174t35 174q34 81 96 143t143 96q83 35 174 35zM512 896q-139 0 -257 -68.5t-186.5 -186.5t-68.5 -257
t68.5 -257t186.5 -186.5t257 -68.5t257 68.5t186.5 186.5t68.5 257t-68.5 257t-186.5 186.5t-257 68.5zM800 416h-256v256q0 13 -9.5 22.5t-22.5 9.5t-22.5 -9.5t-9.5 -22.5v-256h-256q-13 0 -22.5 -9.5t-9.5 -22.5t9.5 -22.5t22.5 -9.5h256v-256q0 -13 9.5 -22.5t22.5 -9.5
t22.5 9.5t9.5 22.5v256h256q13 0 22.5 9.5t9.5 22.5t-9.5 22.5t-22.5 9.5z" />
    <glyph glyph-name="uniE63D" unicode="&#xe63d;" 
d="M512 896q-139 0 -257 -68.5t-186.5 -186.5t-68.5 -257t68.5 -257t186.5 -186.5t257 -68.5t257 68.5t186.5 186.5t68.5 257t-68.5 257t-186.5 186.5t-257 68.5zM832 384q0 -13 -9.5 -22.5t-22.5 -9.5h-256v-256q0 -13 -9.5 -22.5t-22.5 -9.5t-22.5 9.5t-9.5 22.5v256h-256
q-13 0 -22.5 9.5t-9.5 22.5t9.5 22.5t22.5 9.5h256v256q0 13 9.5 22.5t22.5 9.5t22.5 -9.5t9.5 -22.5v-256h256q13 0 22.5 -9.5t9.5 -22.5z" />
    <glyph glyph-name="uniE63E" unicode="&#xe63e;" 
d="M990 448h-446v414q0 14 -9.5 24t-22.5 10t-22.5 -10t-9.5 -24v-414h-446q-14 0 -24 -9.5t-10 -22.5t10 -22.5t24 -9.5h446v-478q0 -14 9.5 -24t22.5 -10t22.5 10t9.5 24v478h446q14 0 24 9.5t10 22.5t-10 22.5t-24 9.5z" />
    <glyph glyph-name="uniE63F" unicode="&#xe63f;" 
d="M230 91q9 -9 22.5 -9t22.5 9q10 10 10 23t-10 23l-184 184h901q13 0 22.5 9.5t9.5 22.5t-9.5 22.5t-22.5 9.5h-960q-13 0 -22.5 -9.5t-9.5 -22.5v-18q0 -13 9 -23z" />
    <glyph glyph-name="uniE640" unicode="&#xe640;" 
d="M794 678q-9 9 -22.5 9t-22.5 -9q-10 -10 -10 -23t10 -23l184 -184h-901q-13 0 -22.5 -9.5t-9.5 -22.5t9.5 -22.5t22.5 -9.5h960q13 0 22.5 9.5t9.5 22.5v18q0 13 -9 23z" />
    <glyph glyph-name="uniE641" unicode="&#xe641;" 
d="M230 26q9 -9 22.5 -9t22.5 9q10 10 10 23t-10 23l-184 184h901q13 0 22.5 9.5t9.5 22.5t-9.5 22.5t-22.5 9.5h-960q-13 0 -22.5 -9.5t-9.5 -22.5v-18q0 -14 9 -23zM794 742q-9 9 -22.5 9t-22.5 -9q-10 -10 -10 -23t10 -23l184 -184h-901q-13 0 -22.5 -9.5t-9.5 -22.5
t9.5 -22.5t22.5 -9.5h960q13 0 22.5 9.5t9.5 22.5v18q0 13 -9 23z" />
    <glyph glyph-name="uniE642" unicode="&#xe642;" 
d="M512 896q-139 0 -257 -68.5t-186.5 -186.5t-68.5 -257t68.5 -257t186.5 -186.5t257 -68.5t257 68.5t186.5 186.5t68.5 257t-68.5 257t-186.5 186.5t-257 68.5zM766 352q0 -13 -9 -22.5t-23 -9.5h-190q-13 0 -22.5 9.5t-9.5 22.5v319q0 13 9.5 22.5t22.5 9.5t22.5 -9.5
t9.5 -22.5v-287h158q14 0 23 -9.5t9 -22.5z" />
    <glyph glyph-name="uniE643" unicode="&#xe643;" 
d="M512 832q91 0 174 -35q81 -34 143 -96t96 -143q35 -83 35 -174t-35 -174q-34 -81 -96 -143t-143 -96q-83 -35 -174 -35t-174 35q-81 34 -143 96t-96 143q-35 83 -35 174t35 174q34 81 96 143t143 96q83 35 174 35zM512 896q-139 0 -257 -68.5t-186.5 -186.5t-68.5 -257
t68.5 -257t186.5 -186.5t257 -68.5t257 68.5t186.5 186.5t68.5 257t-68.5 257t-186.5 186.5t-257 68.5zM734 384h-158v287q0 13 -9.5 22.5t-22.5 9.5t-22.5 -9.5t-9.5 -22.5v-319q0 -13 9.5 -22.5t22.5 -9.5h190q14 0 23 9.5t9 22.5t-9 22.5t-23 9.5z" />
    <glyph glyph-name="uniE644" unicode="&#xe644;" 
d="M512 896q-139 0 -257 -68.5t-186.5 -186.5t-68.5 -257t68.5 -257t186.5 -186.5t257 -68.5t257 68.5t186.5 186.5t68.5 257t-68.5 257t-186.5 186.5t-257 68.5zM384 160q0 -13 -9.5 -22.5t-22.5 -9.5h-1q-13 0 -22 9.5t-9 22.5v448q0 13 9 22.5t22 9.5h1q13 0 22.5 -9.5
t9.5 -22.5v-448zM704 160q0 -13 -9 -22.5t-22 -9.5h-1q-13 0 -22.5 9.5t-9.5 22.5v448q0 13 9.5 22.5t22.5 9.5h1q13 0 22.5 -9.5t9.5 -22.5z" />
    <glyph glyph-name="uniE645" unicode="&#xe645;" 
d="M352 128h-1q-13 0 -22 9.5t-9 22.5v448q0 13 9 22.5t22 9.5h1q13 0 22.5 -9.5t9.5 -22.5v-448q0 -13 -9.5 -22.5t-22.5 -9.5zM673 128h-1q-13 0 -22.5 9.5t-9.5 22.5v448q0 13 9.5 22.5t22.5 9.5h1q13 0 22.5 -9.5t9.5 -22.5v-448q0 -13 -9.5 -22.5t-22.5 -9.5zM512 832
q91 0 174 -35q81 -34 143 -96t96 -143q35 -83 35 -174t-35 -174q-34 -81 -96 -143t-143 -96q-83 -35 -174 -35t-174 35q-81 34 -143 96t-96 143q-35 83 -35 174t35 174q34 81 96 143t143 96q83 35 174 35zM512 896q-139 0 -257 -68.5t-186.5 -186.5t-68.5 -257t68.5 -257
t186.5 -186.5t257 -68.5t257 68.5t186.5 186.5t68.5 257t-68.5 257t-186.5 186.5t-257 68.5z" />
    <glyph glyph-name="uniE646" unicode="&#xe646;" 
d="M288 -128q-13 0 -22.5 9.5t-9.5 22.5v960q0 13 9.5 22.5t22.5 9.5t22.5 -9.5t9.5 -22.5v-960q0 -13 -9.5 -22.5t-22.5 -9.5zM734 -128q-13 0 -22.5 9.5t-9.5 22.5v960q0 13 9.5 22.5t22.5 9.5t22.5 -9.5t9.5 -22.5v-960q0 -13 -9.5 -22.5t-22.5 -9.5z" />
    <glyph glyph-name="uniE647" unicode="&#xe647;" 
d="M512 896q-139 0 -257 -68.5t-186.5 -186.5t-68.5 -257t68.5 -257t186.5 -186.5t257 -68.5t257 68.5t186.5 186.5t68.5 257t-68.5 257t-186.5 186.5t-257 68.5zM542 94q0 -13 -9 -22.5t-23 -9.5q-13 0 -22.5 9.5t-9.5 22.5t9.5 22.5t22.5 9.5q14 0 23 -9.5t9 -22.5z
M608 314q-36 -19 -51 -35t-15 -46v-11q0 -13 -9 -22.5t-23 -9.5q-13 0 -22.5 9.5t-9.5 22.5v11q0 48 24.5 79.5t75.5 58.5q35 18 55.5 52.5t20.5 74.5q0 60 -42 102t-102 42q-62 0 -103 -37q-30 -28 -38 -68q-2 -11 -11 -18.5t-20 -7.5q-16 0 -25.5 11.5t-6.5 26.5
q12 62 59 104q59 53 145 53q87 0 147.5 -61t60.5 -147q0 -58 -29.5 -107.5t-80.5 -76.5z" />
    <glyph glyph-name="uniE648" unicode="&#xe648;" 
d="M510 190q-13 0 -22.5 9.5t-9.5 22.5v11q0 48 24.5 79.5t75.5 57.5q35 19 55.5 53.5t20.5 74.5q0 59 -42 101.5t-102 42.5q-62 0 -103 -37q-30 -28 -38 -68q-2 -12 -11 -19t-20 -7q-16 0 -25.5 11.5t-6.5 26.5q12 62 59 103q59 54 145 54q87 0 147.5 -61t60.5 -147
q0 -58 -29.5 -107.5t-80.5 -76.5q-36 -19 -51 -35t-15 -46v-11q0 -13 -9 -22.5t-23 -9.5zM510 62q-13 0 -22.5 9.5t-9.5 22.5t9.5 22.5t22.5 9.5q14 0 23 -9.5t9 -22.5t-9 -22.5t-23 -9.5zM512 832q91 0 174 -35q81 -34 143 -96t96 -143q35 -83 35 -174t-35 -174
q-34 -81 -96 -143t-143 -96q-83 -35 -174 -35t-174 35q-81 34 -143 96t-96 143q-35 83 -35 174t35 174q34 81 96 143t143 96q83 35 174 35zM512 896q-139 0 -257 -68.5t-186.5 -186.5t-68.5 -257t68.5 -257t186.5 -186.5t257 -68.5t257 68.5t186.5 186.5t68.5 257t-68.5 257
t-186.5 186.5t-257 68.5z" />
    <glyph glyph-name="uniE649" unicode="&#xe649;" 
d="M480 66q-13 0 -22.5 9.5t-9.5 22.5v5q0 78 40.5 145t110.5 104q62 34 98.5 94t36.5 131q0 105 -74 179q-75 75 -181 75q-105 -1 -179 -75q-63 -63 -72 -150q-2 -13 -11 -21t-21 -8q-14 0 -24 10.5t-8 24.5q12 111 91 190q93 93 225 93q65 0 124 -25q57 -24 101 -68
t68 -102q25 -59 25 -123q0 -89 -45.5 -164.5t-123.5 -116.5q-54 -29 -85.5 -81t-31.5 -112v-5q0 -13 -9.5 -22.5t-22.5 -9.5zM480 -128q-13 0 -22.5 9.5t-9.5 22.5t9.5 22.5t22.5 9.5t22.5 -9.5t9.5 -22.5t-9.5 -22.5t-22.5 -9.5z" />
    <glyph glyph-name="uniE64A" unicode="&#xe64a;" 
d="M84 832q44 -2 85 -9q94 -14 162 -46l24 -12l25 9q68 24 141 24q88 0 168 -34q78 -33 137.5 -92.5t91.5 -136.5v0q34 -80 34 -168t-34 -168q-32 -77 -92 -137t-137 -92q-80 -34 -168 -34t-167 34q-78 33 -137.5 92.5t-92.5 136.5v0q-34 80 -34 168q0 59 16 116t46 107
l17 27l-12 29zM58 896h-12q-21 -1 -32 -18t-3 -36l87 -219q-72 -118 -72 -256q0 -101 39 -193q38 -88 106 -157q69 -68 158 -106q92 -39 192 -39q101 0 193 39q89 37 157 106q69 68 106 157q39 92 39 193t-39 193q-37 88 -106 157q-68 68 -157 106q-92 39 -193 39
q-84 0 -162 -28q-55 26 -123.5 41t-106.5 18t-71 3zM545 465q0 -17 -12 -29t-29 -12t-29 12t-12 29v74q0 17 12 29t29 12t29 -12t12 -29v-74zM783 465q0 -17 -12 -29t-29 -12t-29 12t-12 29v74q0 17 12 29t29 12t29 -12t12 -29v-74z" />
    <glyph glyph-name="uniE64B" unicode="&#xe64b;" 
d="M977 560q-37 88 -106 157q-68 68 -157 106q-92 39 -193 39q-84 0 -162 -27q-39 18 -85.5 31.5t-83 18.5t-71.5 8.5t-51 2.5t-22 0q-21 -1 -32 -18t-3 -36l87 -219q-72 -118 -72 -256q0 -101 39 -193q38 -88 106 -157q69 -68 158 -106q92 -39 192 -39q101 0 193 39
q89 37 157 106q69 68 106 157q39 92 39 193t-39 193zM545 465q0 -17 -12 -29t-29 -12t-29 12t-12 29v74q0 17 12 29t29 12t29 -12t12 -29v-74zM783 465q0 -17 -12 -29t-29 -12t-29 12t-12 29v74q0 17 12 29t29 12t29 -12t12 -29v-74z" />
    <glyph glyph-name="uniE64C" unicode="&#xe64c;" 
d="M992 -64h-896q-13 0 -22.5 9.5t-9.5 22.5v896q0 13 -9.5 22.5t-22.5 9.5t-22.5 -9.5t-9.5 -22.5v-928q0 -26 19 -45t45 -19h928q13 0 22.5 9.5t9.5 22.5t-9.5 22.5t-22.5 9.5zM898 384l-239 239q-9 9 -22.5 9t-22.5 -9l-139 -139l-212 212q-7 7 -17 8h-22
q-13 0 -22.5 -9.5t-9.5 -22.5l2 -544q0 -27 18.5 -45.5t45.5 -18.5h576q26 0 45 19t19 45v256v0z" />
    <glyph glyph-name="uniE64D" unicode="&#xe64d;" horiz-adv-x="1025" 
d="M359 -128h-270q-37 0 -63 26t-26 63v270q0 37 26 63t63 26h270q37 0 63 -26t26 -63v-270q0 -37 -26 -63t-63 -26zM359 448h-270q-37 0 -63 26t-26 63v270q0 37 26 63t63 26h270q37 0 63 -26t26 -63v-270q0 -37 -26 -63t-63 -26zM935 -128h-270q-37 0 -63 26t-26 63v270
q0 37 26 63t63 26h270q37 0 63 -26t26 -63v-270q0 -37 -26 -63t-63 -26zM935 448h-270q-37 0 -63 26t-26 63v270q0 37 26 63t63 26h270q37 0 63 -26t26 -63v-270q0 -37 -26 -63t-63 -26z" />
    <glyph glyph-name="uniE64E" unicode="&#xe64e;" 
d="M902 547q-21 31 -49 52.5t-55.5 31t-46.5 13.5t-36 4q-35 4 -75 -7.5t-73 -25t-48 -13.5q-17 0 -75 22.5t-94 21.5q-65 -1 -121.5 -35.5t-90.5 -92.5q-32 -57 -40 -129t5.5 -141.5t39.5 -133t60 -112.5q20 -30 34.5 -48t36 -40t44.5 -32.5t46 -9.5q30 1 78.5 21.5
t89.5 20.5q40 0 88 -20.5t81 -20.5q25 1 47 11t42.5 30.5t33.5 37.5t34 47q43 64 71 146q-8 3 -17.5 8t-33 22.5t-40.5 38.5t-31.5 58t-15.5 80q0 36 11.5 69.5t25 53.5t34 39t26.5 23.5t14 9.5zM716 896q-39 -2 -81 -23.5t-70 -54.5q-27 -30 -41.5 -73t-9.5 -85
q41 -3 80.5 17.5t68.5 54.5q28 35 43 78t10 86z" />
    <glyph glyph-name="uniE64F" unicode="&#xe64f;" 
d="M256 165q0 -31 21.5 -52t51.5 -21h37v-165q0 -23 16 -39t38.5 -16t39 16t16.5 39v165h74v-165q0 -23 16 -39t39 -16t39 16t16 39v165h35q31 0 52 21.5t21 51.5v366h-512v-366zM146 564q-30 0 -51.5 -21.5t-21.5 -51.5v-253q0 -30 21.5 -51.5t51.5 -21.5t51.5 21.5
t21.5 51.5v253q0 30 -21.5 51.5t-51.5 21.5zM652 814l38 64q6 10 -4 16q-9 6 -15 -4l-41 -66q-50 18 -117 18q-68 0 -118 -19l-41 67q-6 10 -15.5 4t-3.5 -16l39 -64q-118 -58 -118 -226v-15h512v15q0 170 -116 226zM394 678q-12 0 -20 8.5t-8 20.5t8 20t20 8t20.5 -8
t8.5 -20t-8.5 -20.5t-20.5 -8.5zM631 678q-12 0 -20.5 8.5t-8.5 20.5t8.5 20t20.5 8t20.5 -8t8.5 -20t-8.5 -20.5t-20.5 -8.5zM878 564q-30 0 -51.5 -21.5t-21.5 -51.5v-253q0 -30 21.5 -51.5t51.5 -21.5t51.5 21.5t21.5 51.5v253q0 30 -21.5 51.5t-51.5 21.5z" />
    <glyph glyph-name="uniE650" unicode="&#xe650;" 
d="M192 672q0 13 9.5 22.5t22.5 9.5h768q13 0 22.5 -9.5t9.5 -22.5q0 -14 -9.5 -23t-22.5 -9h-768q-13 0 -22.5 9t-9.5 23zM0 672q0 14 9.5 23t22.5 9t22.5 -9t9.5 -23q0 -13 -9.5 -22.5t-22.5 -9.5t-22.5 9.5t-9.5 22.5zM192 352q0 14 9.5 23t22.5 9h768q13 0 22.5 -9
t9.5 -23q0 -13 -9.5 -22.5t-22.5 -9.5h-768q-13 0 -22.5 9.5t-9.5 22.5zM0 354q0 13 9.5 22.5t22.5 9.5t22.5 -9.5t9.5 -22.5q0 -14 -9.5 -23t-22.5 -9t-22.5 9t-9.5 23zM192 31q0 13 9.5 22.5t22.5 9.5h768q13 0 22.5 -9.5t9.5 -22.5t-9.5 -22.5t-22.5 -9.5h-768
q-13 0 -22.5 9.5t-9.5 22.5zM0 32q0 13 9.5 22.5t22.5 9.5t22.5 -9.5t9.5 -22.5t-9.5 -22.5t-22.5 -9.5t-22.5 9.5t-9.5 22.5z" />
    <glyph glyph-name="uniE651" unicode="&#xe651;" 
d="M992 -64h-896q-13 0 -22.5 9.5t-9.5 22.5v896q0 13 -9.5 22.5t-22.5 9.5t-22.5 -9.5t-9.5 -22.5v-928q0 -26 19 -45t45 -19h928q13 0 22.5 9.5t9.5 22.5t-9.5 22.5t-22.5 9.5zM225 64q-13 0 -22.5 9t-9.5 23v321q0 14 9.5 23t22.5 9t22.5 -9t9.5 -23v-321q0 -14 -9.5 -23
t-22.5 -9zM418 64q-14 0 -23 9t-9 23v449q0 13 9 22.5t23 9.5q13 0 22.5 -9.5t9.5 -22.5v-449q0 -14 -9.5 -23t-22.5 -9zM610 64q-14 0 -23 9t-9 23v128q0 14 9 23t23 9q13 0 22.5 -9t9.5 -23v-128q0 -14 -9.5 -23t-22.5 -9zM802 64q-14 0 -23 9t-9 23v639q0 14 9 23t23 9
q13 0 22.5 -9t9.5 -23v-639q0 -14 -9.5 -23t-22.5 -9z" />
    <glyph glyph-name="uniE652" unicode="&#xe652;" 
d="M960 705h-199l-111 118q-10 9 -25 9h-227q-15 0 -24 -9l-112 -118h-198q-26 0 -45 -19t-19 -45v-640q0 -26 19 -45t45 -19h896q26 0 45 19t19 45v640q0 26 -19 45t-45 19zM411 766h202l58 -61h-318zM949 12h-874v618h757v0h117v-618zM511 448q53 0 90.5 -37.5t37.5 -90.5
t-37.5 -90.5t-90.5 -37.5t-90.5 37.5t-37.5 90.5t37.5 90.5t90.5 37.5zM511 512q-79 0 -135.5 -56t-56.5 -135.5t56.5 -136t136 -56.5t135.5 56.5t56 136t-56 135.5t-136 56z" />
    <glyph glyph-name="uniE653" unicode="&#xe653;" 
d="M511 448q-53 0 -90.5 -37.5t-37.5 -90.5t37.5 -90.5t90.5 -37.5t90.5 37.5t37.5 90.5t-37.5 90.5t-90.5 37.5zM960 705h-199l-111 118q-10 9 -25 9h-227q-15 0 -24 -9l-112 -118h-198q-26 0 -45 -19t-19 -45v-640q0 -26 19 -45t45 -19h896q26 0 45 19t19 45v640
q0 26 -19 45t-45 19zM411 766h202l58 -61h-318zM511.5 128q-79.5 0 -136 56.5t-56.5 136t56.5 135.5t136 56t135.5 -56t56 -135.5t-56 -136t-135.5 -56.5z" />
    <glyph glyph-name="uniE654" unicode="&#xe654;" 
d="M960 706h-192v94q0 13 -9.5 22.5t-22.5 9.5t-22.5 -9.5t-9.5 -22.5v-94h-192v94q0 13 -9.5 22.5t-22.5 9.5t-22.5 -9.5t-9.5 -22.5v-94h-192v94q0 13 -9.5 22.5t-22.5 9.5t-22.5 -9.5t-9.5 -22.5v-94h-128q-26 0 -45 -19t-19 -45v-640q0 -27 19 -45.5t45 -18.5h896
q26 0 45 18.5t19 45.5v640q0 26 -19 45t-45 19zM192 631v-23q0 -13 9.5 -22.5t22.5 -9.5t22.5 9.5t9.5 22.5v23h192v-23q0 -13 9.5 -22.5t22.5 -9.5t22.5 9.5t9.5 22.5v23h192v-23q0 -13 9.5 -22.5t22.5 -9.5t22.5 9.5t9.5 22.5v23h181v-119h-867q-3 0 -7 -1v120h117zM75 13
v436q4 -1 7 -1h867v-435h-874zM672 382h-320q-13 0 -22.5 -9.5t-9.5 -22.5t9.5 -22.5t22.5 -9.5h320q13 0 22.5 9.5t9.5 22.5t-9.5 22.5t-22.5 9.5zM672 190h-320q-13 0 -22.5 -9.5t-9.5 -22.5t9.5 -22.5t22.5 -9.5h320q13 0 22.5 9.5t9.5 22.5t-9.5 22.5t-22.5 9.5z" />
    <glyph glyph-name="uniE655" unicode="&#xe655;" 
d="M704 542q0 -13 -9.5 -22.5t-22.5 -9.5h-320q-13 0 -22.5 9.5t-9.5 22.5t9.5 22.5t22.5 9.5h320q13 0 22.5 -9.5t9.5 -22.5zM704 350q0 -13 -9.5 -22.5t-22.5 -9.5h-320q-13 0 -22.5 9.5t-9.5 22.5t9.5 22.5t22.5 9.5h320q13 0 22.5 -9.5t9.5 -22.5zM704 158
q0 -13 -9.5 -22.5t-22.5 -9.5h-320q-13 0 -22.5 9.5t-9.5 22.5t9.5 22.5t22.5 9.5h320q13 0 22.5 -9.5t9.5 -22.5zM832 832h-128v32q0 13 -9 22.5t-22.5 9.5t-23 -9.5t-9.5 -22.5v-32h-95v32q0 13 -9.5 22.5t-23 9.5t-22.5 -9.5t-9 -22.5v-32h-96v32q0 13 -9.5 22.5
t-22.5 9.5t-22.5 -9.5t-9.5 -22.5v-32h-129q-26 0 -45 -19t-19 -45v-832q0 -26 19 -45t45 -19h640q26 0 45 19t19 45v832q0 26 -19 45t-45 19zM823 -56h-622v815h120v-23q0 -13 9.5 -22.5t22.5 -9.5t22.5 9.5t9.5 22.5v23h96v-23q0 -13 9 -22.5t22.5 -9.5t23 9.5t9.5 22.5
v23h95v-23q0 -13 9.5 -22.5t23 -9.5t22.5 9.5t9 22.5v23h119v-815z" />
    <glyph glyph-name="uniE656" unicode="&#xe656;" 
d="M222.5 578q-13.5 0 -23 -9.5t-9.5 -23t9.5 -23t23 -9.5t23 9.5t9.5 23t-9.5 23t-23 9.5zM1004 312l-449 453q-13 14 -32 14h-180h-93h-180q-29 0 -49.5 -20.5t-20.5 -48.5v-280q0 -18 13 -32l448 -443q21 -20 50 -20t49 20l41 41l41 -41q20 -20 49 -20t50 20l263 260
q20 20 20 48.5t-20 48.5zM223 449q-40 0 -68.5 28t-28.5 68t28.5 68.5t68.5 28.5t68 -28.5t28 -68.5t-28 -68t-68 -28zM958 260l-262 -259q-2 -2 -5 -2t-4 2l-40 39l176 175q21 20 21 48.5t-20 48.5l-399 403h90l443 -448q2 -1 2 -3t-2 -4z" />
    <glyph glyph-name="uniE657" unicode="&#xe657;" 
d="M222.5 578q13.5 0 23 -9.5t9.5 -23t-9.5 -23t-23 -9.5t-23 9.5t-9.5 23t9.5 23t23 9.5zM223 642q-40 0 -68.5 -28.5t-28.5 -68.5t28.5 -68t68.5 -28t68 28t28 68t-28 68.5t-68 28.5zM1004 312l-449 453q-13 14 -32 14h-180h-93h-180q-29 0 -49.5 -20.5t-20.5 -48.5v-280
q0 -18 13 -32l448 -443q21 -20 50 -20t49 20l41 41l41 -41q20 -20 49 -20t50 20l263 260q20 20 20 48.5t-20 48.5zM556 40l-40 -39q-2 -2 -5 -2t-5 2l-442 437v272q0 5 6 5h110h70h85l443 -448q2 -1 2 -3t-2 -3l-177 -175zM958 260l-262 -259q-2 -2 -5 -2t-4 2l-40 39
l176 175q21 20 21 48.5t-20 48.5l-399 403h90l443 -448q2 -1 2 -3t-2 -4z" />
    <glyph glyph-name="uniE658" unicode="&#xe658;" 
d="M1000 330l-545 550q-16 16 -39 16h-331q-35 0 -60 -24.5t-25 -59.5v-340q0 -22 16 -38l544 -537q25 -25 60 -25t60 25l319 315q25 24 25 58.5t-24 59.5zM248 520q-53 0 -90.5 37.5t-37.5 90.5t37.5 90.5t90.5 37.5t90.5 -37.5t37.5 -90.5t-37.5 -90.5t-90.5 -37.5z
M248.5 712q-26.5 0 -45.5 -19t-19 -45.5t19 -45t45.5 -18.5t45 18.5t18.5 45t-18.5 45.5t-45 19z" />
    <glyph glyph-name="uniE659" unicode="&#xe659;" horiz-adv-x="1025" 
d="M412 832l542 -547q6 -6 6 -14t-6 -14l-319 -315q-6 -6 -15 -6t-15 6l-541 535v335q0 8 6 14t15 6h327zM416 896h-331q-35 0 -60 -24.5t-25 -59.5v-340q0 -22 16 -38l544 -537q25 -25 60 -25t60 25l319 315q25 24 25 58.5t-24 59.5l-545 550q-16 16 -39 16zM248.5 712
q26.5 0 45 -19t18.5 -45.5t-18.5 -45t-45 -18.5t-45.5 18.5t-19 45t19 45.5t45.5 19zM248 776q-53 0 -90.5 -37.5t-37.5 -90.5t37.5 -90.5t90.5 -37.5t90.5 37.5t37.5 90.5t-37.5 90.5t-90.5 37.5z" />
    <glyph glyph-name="uniE65A" unicode="&#xe65a;" 
d="M980 413q-31 46 -76 76q-3 51 -22 96q-23 53 -67 97q-44 42 -98 64t-116 22q-93 0 -169 -51q-45 -30 -77 -73q-24 8 -52 8q-37 0 -70 -13.5t-59 -39.5q-27 -26 -41 -58q-14 -33 -14 -70q0 -13 2 -26q-38 -22 -67 -57q-54 -65 -54 -149q0 -50 18 -93q18 -42 53.5 -76.5
t79 -52t92.5 -17.5h508q55 0 104 19.5t88.5 58.5t59.5 86q21 49 21 104q0 79 -44 145z" />
    <glyph glyph-name="uniE65B" unicode="&#xe65b;" 
d="M980 413q-31 46 -76 76q-3 51 -22 96q-23 53 -67 97q-44 42 -98 64t-116 22q-93 0 -169 -51q-45 -30 -77 -73q-24 8 -52 8q-37 0 -70 -13.5t-59 -39.5q-27 -26 -41 -58q-14 -33 -14 -70q0 -13 2 -26q-38 -22 -67 -57q-54 -65 -54 -149q0 -50 18 -93q18 -42 53.5 -76.5
t79 -52t92.5 -17.5h508q55 0 104 19.5t88.5 58.5t59.5 86q21 49 21 104q0 79 -44 145zM781 287l-149 -150q-10 -9 -23 -9t-23 9l-149 150q-9 9 -9 22.5t9 22.5t22.5 9t22.5 -9l95 -95v306q0 14 9.5 23t22.5 9t22.5 -9t9.5 -23v-306l95 95q9 9 22.5 9t22.5 -9t9 -22.5
t-9 -22.5z" />
    <glyph glyph-name="uniE65C" unicode="&#xe65c;" 
d="M258 449l-146 254q71 90 176 141.5t224 51.5q138 0 255 -68t185 -183h-417q-11 1 -23 1q-90 0 -161 -55.5t-93 -141.5zM695 571h294q35 -90 35 -187q0 -103 -40 -197.5t-108 -163t-161.5 -109.5t-196.5 -42l209 363q47 67 47 149q0 110 -79 187v0zM326 384
q0 77 54.5 131.5t131.5 54.5t131.5 -54.5t54.5 -131.5t-54.5 -131.5t-131.5 -54.5t-131.5 54.5t-54.5 131.5zM582 132l-146 -254q-123 18 -222.5 89t-156.5 181t-57 236q0 135 66 251l209 -362q32 -68 96 -109.5t141 -41.5q35 0 70 10z" />
    <glyph glyph-name="uniE65D" unicode="&#xe65d;" 
d="M236 584q-9 10 -22.5 10t-22.5 -10l-182 -181q-9 -9 -9 -22.5t9 -22.5l182 -182q9 -10 22.5 -10t22.5 10q10 9 10 22.5t-10 22.5l-159 159l159 159q10 10 10 23t-10 22zM788 584q9 10 22.5 10t22.5 -10l182 -181q9 -9 9 -22.5t-9 -22.5l-182 -182q-9 -10 -22.5 -10
t-22.5 10q-10 9 -10 22.5t10 22.5l159 159l-159 159q-10 10 -10 23t10 22zM691 764q12 -6 16 -19t-2 -24l-371 -704q-7 -12 -19.5 -16t-24.5 2q-11 7 -15 19.5t2 24.5l371 703q6 12 18.5 16t24.5 -2z" />
    <glyph glyph-name="uniE65E" unicode="&#xe65e;" 
d="M883 602q-8 33 -21 64q-29 67 -82 119q-53 51 -122 80q-71 29 -148.5 29t-148.5 -29q-68 -28 -121 -80t-82 -119q-14 -31 -22 -65q-59 -19 -97 -70t-38 -116q0 -80 57 -137q41 -41 96 -53q15 -3 27 6.5t12 25.5l-2 263q0 128 93 219q94 91 226 91t225 -91q93 -90 93 -218
v-276q0 -128 -93 -218q-45 -44 -103 -68q6 20 6 42q-1 50 -37 85.5t-86 37.5q-53 1 -91 -36t-38 -90q0 -52 36 -88.5t88 -37.5h1h1h2h1q75 1 143 29q69 28 122 80t82 119q27 62 30 131q42 15 74 47q57 57 57 137q0 66 -39.5 118t-100.5 69zM103 323q-38 38 -38 92
q0 35 17 65t45 47v-3v-4v-216q-13 8 -24 19zM514 -64h-3q-25 0 -43 18t-18 43.5t18 44t44 18.5t44 -18.5t18 -43.5t-17.5 -43t-42.5 -19zM921 323q-13 -13 -29 -22v219v10q30 -17 48.5 -47.5t18.5 -67.5q0 -54 -38 -92z" />
    <glyph glyph-name="uniE65F" unicode="&#xe65f;" 
d="M960 768h-896q-26 0 -45 -19t-19 -45v-640q0 -26 19 -45t45 -19h896q26 0 45 19t19 45v640q0 26 -19 45t-45 19zM64 704h896v-129h-896v129zM960 64h-896v447h896v-447zM192 416v-128q0 -13 -9.5 -22.5t-22.5 -9.5t-22.5 9.5t-9.5 22.5v128q0 13 9.5 22.5t22.5 9.5
t22.5 -9.5t9.5 -22.5zM321 416v-128q0 -13 -9.5 -22.5t-22.5 -9.5t-22.5 9.5t-9.5 22.5v128q0 13 9.5 22.5t22.5 9.5t22.5 -9.5t9.5 -22.5z" />
    <glyph glyph-name="uniE660" unicode="&#xe660;" 
d="M750 879q-16 17 -40 17h-378q-28 0 -49 -18.5t-25 -45.5h-79q-48 0 -81.5 -33.5t-33.5 -81.5v-730q0 -48 33.5 -81.5t81.5 -33.5h604q48 0 81.5 33.5t33.5 81.5v80q27 5 44.5 26t17.5 48v505q0 24 -17 40zM867 672h-159v159zM834 -13q0 -21 -14.5 -36t-35.5 -15h-605
q-21 0 -36 15t-15 36v730q0 21 15 36t36 15h78v-627q0 -31 22 -53t53 -22h502v-79zM896 142q0 -12 -12 -12h-552q-4 0 -7.5 3.5t-3.5 8.5v678q0 5 3.5 8.5t7.5 3.5h308v-192q0 -13 9.5 -22.5t22.5 -9.5h36h188v-466zM736 449h-255q-13 0 -22.5 9.5t-9.5 22.5t9.5 22.5
t22.5 9.5h255q13 0 22.5 -9.5t9.5 -22.5t-9.5 -22.5t-22.5 -9.5zM736 320h-255q-13 0 -22.5 9.5t-9.5 22.5t9.5 22.5t22.5 9.5h255q13 0 22.5 -9.5t9.5 -22.5t-9.5 -22.5t-22.5 -9.5zM608 191h-128q-13 0 -22.5 9.5t-9.5 22.5t9.5 22.5t22.5 9.5h128q14 0 23 -9.5t9 -22.5
t-9 -22.5t-23 -9.5z" />
    <glyph glyph-name="uniE661" unicode="&#xe661;" 
d="M928 705h-159v118q0 30 -21.5 51.5t-51.5 21.5h-368q-30 0 -51.5 -21.5t-21.5 -51.5v-118h-159q-13 0 -22.5 -9.5t-9.5 -23.5q0 -13 9.5 -22.5t22.5 -9.5h33v-695q0 -30 21.5 -51.5t51.5 -21.5h619q30 0 51.5 21.5t21.5 51.5v695h33q14 0 23.5 9.5t9.5 22.5
q0 14 -9.5 23.5t-22.5 9.5zM319 705v118q0 9 9 9h368q9 0 9 -9v-118v-1h-386v1zM830 -55q0 -9 -9 -9h-619q-9 0 -9 9v695h62h575v-695zM320 480v-384q0 -14 -9.5 -23t-22.5 -9t-22.5 9t-9.5 23v384q0 13 9.5 22.5t22.5 9.5t22.5 -9.5t9.5 -22.5zM544 480v-384
q0 -14 -9.5 -23t-22.5 -9t-22.5 9t-9.5 23v384q0 13 9.5 22.5t22.5 9.5t22.5 -9.5t9.5 -22.5zM769 480v-384q0 -14 -9.5 -23t-22.5 -9t-22.5 9t-9.5 23v384q0 13 9.5 22.5t22.5 9.5t22.5 -9.5t9.5 -22.5z" />
    <glyph glyph-name="uniE662" unicode="&#xe662;" 
d="M960 831h-896q-26 0 -45 -18.5t-19 -45.5v-576q0 -26 19 -45t45 -19h416v-127h-192q-13 0 -22.5 -9.5t-9.5 -22.5t9.5 -22.5t22.5 -9.5h448q14 0 23 9.5t9 22.5t-9 22.5t-23 9.5h-192v127h416q26 0 45 19t19 45v576q0 27 -19 45.5t-45 18.5zM960 191h-896v576h896v-576z
" />
    <glyph glyph-name="uniE663" unicode="&#xe663;" 
d="M338 255l181 -181q10 -10 23 -10t23 10l181 181q9 9 9 22.5t-9 22.5q-10 9 -23 9t-23 -9l-126 -126v690q0 13 -9.5 22.5t-22.5 9.5t-22.5 -9.5t-9.5 -22.5v-690l-126 126q-10 9 -23 9t-23 -9q-9 -9 -9 -22.5t9 -22.5zM960 160v-192q0 -13 -9.5 -22.5t-22.5 -9.5h-832
q-13 0 -22.5 9.5t-9.5 22.5v192q0 13 -9.5 22.5t-22.5 9.5t-22.5 -9.5t-9.5 -22.5v-224q0 -26 19 -45t45 -19h896q26 0 45 19t19 45v224q0 13 -9.5 22.5t-22.5 9.5t-22.5 -9.5t-9.5 -22.5z" />
    <glyph glyph-name="uniE664" unicode="&#xe664;" 
d="M338 660q10 -9 23 -9t23 9l126 127v-691q0 -13 9.5 -22.5t22.5 -9.5t22.5 9.5t9.5 22.5v691l126 -127q10 -9 23 -9t23 9q9 10 9 23t-9 23l-181 181q-10 9 -23 9t-23 -9l-181 -181q-9 -10 -9 -23t9 -23zM960 160v-192q0 -13 -9.5 -22.5t-22.5 -9.5h-832q-13 0 -22.5 9.5
t-9.5 22.5v192q0 13 -9.5 22.5t-22.5 9.5t-22.5 -9.5t-9.5 -22.5v-224q0 -26 19 -45t45 -19h896q26 0 45 19t19 45v224q0 13 -9.5 22.5t-22.5 9.5t-22.5 -9.5t-9.5 -22.5z" />
    <glyph glyph-name="uniE665" unicode="&#xe665;" 
d="M512 639q-66 0 -113 -47t-47 -113t47 -113t113 -47t113 47t47 113t-47 113t-113 47zM512 896q-116 0 -218 -51.5t-163 -141t-61 -194.5q0 -65 19 -131t48.5 -121t71 -109.5t79.5 -94.5t81.5 -78t70 -58.5t51.5 -37.5q21 -15 42 0q25 17 51.5 37.5t70 58.5t81.5 78
t79.5 94.5t71 109.5t48.5 121t19 131q0 105 -61 194.5t-163 141t-218 51.5zM670.5 320.5q-65.5 -65.5 -158.5 -65.5t-158.5 65.5t-65.5 158.5t65.5 158.5t158.5 65.5t158.5 -65.5t65.5 -158.5t-65.5 -158.5z" />
    <glyph glyph-name="uniE666" unicode="&#xe666;" 
d="M512 832q75 0 146 -26q68 -26 121 -72q53 -45 82 -103q29 -59 29 -122q0 -96 -47 -196q-41 -86 -115 -173q-92 -108 -216 -198q-124 90 -216 198q-74 87 -115 173q-47 101 -47 196q0 64 29 122t82 103q53 46 121 72q71 26 146 26zM512 896q-116 0 -218 -51.5t-163 -141
t-61 -194.5q0 -65 19 -131t48.5 -121t71 -109.5t79.5 -94.5t81.5 -78t70 -58.5t51.5 -37.5q9 -7 21 -7t21 7q25 17 51.5 37.5t70 58.5t81.5 78t79.5 94.5t71 109.5t48.5 121t19 131q0 105 -61 194.5t-163 141t-218 51.5zM512 255q-93 0 -158.5 65.5t-65.5 158.5t65.5 158.5
t158.5 65.5t158.5 -65.5t65.5 -158.5t-65.5 -158.5t-158.5 -65.5zM512 639q-66 0 -113 -47t-47 -113t47 -113t113 -47t113 47t47 113t-47 113t-113 47z" />
    <glyph glyph-name="uniE667" unicode="&#xe667;" 
d="M64 320q-26 0 -45 18.5t-19 45.5t19 45.5t45 18.5q27 0 46 -18.5t19 -45.5t-19 -45.5t-46 -18.5zM512 320q-27 0 -45.5 19t-18.5 46t18.5 46t45.5 19t45.5 -19t18.5 -46t-18.5 -46t-45.5 -19zM960 320q-27 0 -46 18.5t-19 45.5t19 45.5t46 18.5q26 0 45 -18.5t19 -45.5
t-19 -45.5t-45 -18.5z" />
    <glyph glyph-name="uniE668" unicode="&#xe668;" horiz-adv-x="1025" 
d="M992 -127h-960q-13 0 -22.5 9.5t-9.5 22.5t9.5 22.5t22.5 9.5h960q13 0 22.5 -9.5t9.5 -22.5t-9.5 -22.5t-22.5 -9.5zM1004 778l-98 98q-20 20 -49 20t-49 -20l-480 -481l-133 -281q-8 -18 2.5 -34t29.5 -16q7 0 15 3l281 133l481 480q20 20 20 49t-20 49zM486 253
l-198 -93l93 198l348 348l105 -105zM958 725l-79 -79l-105 105l79 79q2 2 4 2t4 -2l97 -97q2 -2 2 -4t-2 -4z" />
    <glyph glyph-name="uniE669" unicode="&#xe669;" 
d="M923 311q-15 0 -25.5 -10.5t-10.5 -25.5v-236q0 -12 -9 -21t-21 -9h-690q-12 0 -21 9t-9 21v690q0 12 9 21t21 9h310q15 0 25.5 10.5t10.5 25.5t-10.5 25.5t-25.5 10.5h-310q-42 0 -72 -30t-30 -72v-690q0 -42 30 -72t72 -30h690q42 0 72 30t30 72v236q0 15 -10.5 25.5
t-25.5 10.5zM951 600l-231 220q-17 17 -39 7.5t-22 -33.5v-118q-187 -12 -286 -162q-24 -36 -40.5 -78t-20 -58t-4.5 -26q-3 -15 6 -27t24 -14q2 -1 5 -1q14 0 24 9t12 22q1 7 4 21t17 49.5t34 64.5q87 129 257 130q3 -1 4 -1q15 0 25.5 10.5t10.5 25.5v69l141 -134
l-141 -118v58q0 15 -10.5 25.5t-25.5 10.5t-25.5 -10.5t-10.5 -25.5v-135q0 -23 21 -32q7 -4 15 -4q13 0 23 9l231 192q13 11 13.5 27t-11.5 27z" />
    <glyph glyph-name="uniE66A" unicode="&#xe66a;" 
d="M672 512q13 0 22.5 -9t9.5 -23v-448q0 -14 -9.5 -23.5t-22.5 -8.5q-13 0 -22.5 9t-9.5 23v448q0 14 9.5 23t22.5 9zM672 -64q13 0 22.5 -9.5t9.5 -22.5t-9.5 -22.5t-22.5 -9.5t-22.5 9.5t-9.5 22.5t9.5 22.5t22.5 9.5zM160 639h384q13 0 22.5 -9.5t9.5 -22.5t-9.5 -22.5
t-22.5 -9.5h-384q-13 0 -22.5 9.5t-9.5 22.5t9.5 22.5t22.5 9.5zM160 447h192q13 0 22.5 -9.5t9.5 -22.5t-9.5 -22.5t-22.5 -9.5h-192q-13 0 -22.5 9.5t-9.5 22.5t9.5 22.5t22.5 9.5zM160 255h192q13 0 22.5 -9.5t9.5 -22.5t-9.5 -22.5t-22.5 -9.5h-192q-13 0 -22.5 9.5
t-9.5 22.5t9.5 22.5t22.5 9.5zM1 831v-832q0 -26 18.5 -45t45.5 -19h480q13 0 22.5 9.5t9.5 22.5q0 14 -9.5 23t-22.5 9h-480v832h832v-832h-98q-13 0 -22.5 -9t-9.5 -23q0 -13 9.5 -22.5t22.5 -9.5h98q26 0 45 19t19 45v832q0 27 -19 45.5t-45 18.5h-832q-27 0 -45.5 -18.5
t-18.5 -45.5z" />
    <glyph glyph-name="uniE66B" unicode="&#xe66b;" 
d="M637 832l195 -218v-669q0 -3 -4 -6t-9 -3h-614q-5 0 -9 3t-4 6v878q0 3 4 6t9 3h432zM666 896h-461q-32 0 -54.5 -21.5t-22.5 -51.5v-878q0 -30 22.5 -51.5t54.5 -21.5h614q32 0 54.5 21.5t22.5 51.5v694zM640 640v256h-64v-256q0 -26 19 -45t45 -19h253v64h-253z" />
    <glyph glyph-name="uniE66C" unicode="&#xe66c;" 
d="M666 896h-461q-32 0 -54.5 -21.5t-22.5 -51.5v-878q0 -30 22.5 -51.5t54.5 -21.5h614q32 0 54.5 21.5t22.5 51.5v694zM809 640h-169v189zM819 -64h-614q-5 0 -9 3t-4 6v878q0 3 4 6t9 3h371v-192q0 -26 19 -45t45 -19h192v-631q0 -3 -4 -6t-9 -3zM288 448h256
q13 0 22.5 9.5t9.5 22.5t-9.5 22.5t-22.5 9.5h-256q-13 0 -22.5 -9.5t-9.5 -22.5t9.5 -22.5t22.5 -9.5zM736 320h-448q-13 0 -22.5 -9.5t-9.5 -22.5t9.5 -22.5t22.5 -9.5h448q14 0 23 9.5t9 22.5t-9 22.5t-23 9.5zM544 64h-256q-13 0 -22.5 9.5t-9.5 22.5t9.5 22.5t22.5 9.5
h256q13 0 22.5 -9.5t9.5 -22.5t-9.5 -22.5t-22.5 -9.5z" />
    <glyph glyph-name="uniE66D" unicode="&#xe66d;" horiz-adv-x="1025" 
d="M512 695q134 0 233 -50v0q80 -40 135 -109v0q48 -60 78 -152q-30 -92 -78 -151v-1q-55 -69 -135 -109q-100 -50 -233 -50t-234 50q-79 40 -135 109v0q-48 60 -77 152q29 92 77 152q56 69 136 109q100 50 233 50zM512 759q-148 0 -262 -57q-92 -45 -156 -126
q-28 -35 -51.5 -82.5t-33 -76t-9.5 -33.5t9.5 -33.5t33 -76t51.5 -82.5q64 -80 156 -126q114 -57 262 -57t262 57q92 46 157 126q27 35 50.5 82.5t33 76t9.5 33.5t-9.5 33.5t-33 76t-50.5 82.5q-65 80 -157 126q-113 57 -262 57zM512 512q53 0 90 -37t37 -90t-37 -90
t-90 -37t-90 37t-37 90t37 90t90 37zM512 576q-79 0 -135 -56t-56 -135t56 -135t135 -56t135 56t56 135t-56 135t-135 56z" />
    <glyph glyph-name="uniE66E" unicode="&#xe66e;" horiz-adv-x="1025" 
d="M930 576q-64 80 -156 126q-113 57 -262 57t-262 -57q-92 -45 -157 -126q-27 -35 -50.5 -82.5t-33 -76t-9.5 -33.5t9.5 -33.5t33 -76t51.5 -82.5q64 -80 156 -126q114 -57 262 -57t262 57q92 46 157 126q27 35 50.5 82.5t33 76t9.5 33.5t-9.5 33.5t-33 76t-51.5 82.5z
M512 194q-79 0 -135 56t-56 135t56 135t135 56t135 -56t56 -135t-56 -135t-135 -56zM512 512q-53 0 -90 -37t-37 -90t37 -90t90 -37t90 37t37 90t-37 90t-90 37z" />
    <glyph glyph-name="uniE66F" unicode="&#xe66f;" horiz-adv-x="1025" 
d="M924 832l-353 -443l-14 -17v-23v-224q0 -18 -10.5 -42.5t-22.5 -36.5l-58 -56v360v22l-13 18l-353 442h824zM984 896h-944q-30 0 -38 -16.5t11 -40.5l389 -489v-440q0 -38 23 -38q13 0 29 16l115 113q21 21 36.5 57t15.5 67v224l390 490q19 24 11 40.5t-38 16.5z" />
    <glyph glyph-name="uniE670" unicode="&#xe670;" 
d="M405 768q5 0 11 -5t7 -10v0l19 -77v-1q5 -23 26 -39q20 -17 45 -17h437q10 0 10 -11v-597v0q0 -5 -3 -8t-6 -3h-878q-9 0 -9 11v746q0 11 9 11h332zM405 832h-332q-30 0 -51.5 -22t-21.5 -53v-746q0 -31 21.5 -53t51.5 -22h878q30 0 51.5 22t21.5 53v597q0 31 -21.5 53
t-51.5 22h-437q-3 0 -6 2.5t-4 4.5l-18 77q-7 28 -30 46.5t-51 18.5z" />
    <glyph glyph-name="uniE671" unicode="&#xe671;" horiz-adv-x="1025" 
d="M978 446h1v114q0 29 -20.5 49.5t-48.5 20.5h-425q-2 0 -5 2.5t-4 4.5l-17 71q-6 25 -28 42.5t-48 17.5h-314q-28 0 -48.5 -20.5t-20.5 -48.5v-692q0 -27 18 -46q20 -23 51 -23q619 -1 804 0q23 0 40.5 15t22.5 38l42 195l45 205q5 21 -9 38t-36 17zM64 174v525q0 5 5 5
h314q4 0 8 -4q5 -3 6 -7v0l17 -71v-1q6 -23 26 -39q21 -16 45 -16h425q5 0 5 -5v-115h-1h-754q-17 0 -29.5 -10t-15.5 -26zM914 192l-41 -190h-781l82 380h740h42z" />
    <glyph glyph-name="uniE672" unicode="&#xe672;" 
d="M512 896q-139 0 -257 -68.5t-186.5 -186.5t-68.5 -257t68.5 -257t186.5 -186.5t257 -68.5t257 68.5t186.5 186.5t68.5 257t-68.5 257t-186.5 186.5t-257 68.5zM256 482q0 -13 -9.5 -22.5t-22.5 -9.5t-22.5 9.5t-9.5 22.5v64q0 13 9.5 22.5t22.5 9.5t22.5 -9.5t9.5 -22.5
v-64zM736 130q-12 0 -21 8t-11 19q-9 62 -55 107q-57 56 -137 56t-137 -56q-46 -45 -55 -107q-2 -12 -11 -19.5t-21 -7.5q-14 0 -23.5 11t-7.5 25q12 83 73 144q76 74 182.5 74t181.5 -74q61 -60 74 -144q2 -14 -8 -25t-24 -11zM831 482q0 -13 -9.5 -22.5t-22.5 -9.5
t-22.5 9.5t-9.5 22.5v64q0 13 9.5 22.5t22.5 9.5t22.5 -9.5t9.5 -22.5v-64z" />
    <glyph glyph-name="uniE673" unicode="&#xe673;" 
d="M512 832q91 0 174 -35q81 -34 143 -96t96 -143q35 -83 35 -174t-35 -174q-34 -81 -96 -143t-143 -96q-83 -35 -174 -35t-174 35q-81 34 -143 96t-96 143q-35 83 -35 174t35 174q34 81 96 143t143 96q83 35 174 35zM512 896q-139 0 -257 -68.5t-186.5 -186.5t-68.5 -257
t68.5 -257t186.5 -186.5t257 -68.5t257 68.5t186.5 186.5t68.5 257t-68.5 257t-186.5 186.5t-257 68.5zM224 450q-13 0 -22.5 9.5t-9.5 22.5v64q0 13 9.5 22.5t22.5 9.5t22.5 -9.5t9.5 -22.5v-64q0 -13 -9.5 -22.5t-22.5 -9.5zM799 450q-13 0 -22.5 9.5t-9.5 22.5v64
q0 13 9.5 22.5t22.5 9.5t22.5 -9.5t9.5 -22.5v-64q0 -13 -9.5 -22.5t-22.5 -9.5zM192 319zM832 319zM512 384q-106 0 -182 -74q-61 -60 -73 -144q-2 -14 7.5 -25t23.5 -11q12 0 21 8t11 19q9 62 55 107q57 56 137 56t137 -56q46 -45 55 -107q2 -12 11 -19.5t21 -7.5
q14 0 24 11t7 25q-12 83 -73 144q-76 74 -182 74z" />
    <glyph glyph-name="uniE674" unicode="&#xe674;" 
d="M0 371q0 -166 95.5 -298.5t247.5 -185.5q6 -1 10 -1t6.5 1.5t4 3t2 5t0.5 4.5v6v7v88q-37 -4 -66 0.5t-45.5 14t-29 23.5t-17 25.5t-9 24t-5.5 14.5q-9 15 -27 27.5t-27 20t-2 14.5q50 26 113 -66q34 -51 119 -30q10 41 40 70q-116 21 -172 86t-56 158q0 87 55 151
q-22 65 6 137q29 2 65 -11.5t50.5 -23t25.5 -17.5q57 16 128.5 16t129.5 -16q13 9 29 19t49 21.5t61 9.5q27 -71 6 -135q56 -64 56 -152q0 -92 -56.5 -157.5t-171.5 -85.5q43 -43 43 -104v-129q0 -1 1 -3q0 -6 0.5 -9t4.5 -6t11 -3q154 52 251.5 185.5t97.5 300.5
q0 104 -40.5 199t-109 163.5t-163.5 109t-199 40.5t-199 -40.5t-163.5 -109t-109 -163.5t-40.5 -199z" />
    <glyph glyph-name="uniE675" unicode="&#xe675;" horiz-adv-x="1025" 
d="M848 859q-5 17 -19 27t-31 10h-578q-18 0 -32 -10.5t-19 -26.5q-169 -607 -169 -612v-321q0 -23 16 -38.5t38 -15.5h916q22 0 38 15.5t16 38.5l1 330zM228 832h562l168 -576h-892zM960 -64h-896v256h896v-256zM608 0q13 0 22.5 9.5t9.5 22.5v64q0 13 -9.5 22.5t-22.5 9.5
t-22.5 -9.5t-9.5 -22.5v-64q0 -13 9.5 -22.5t22.5 -9.5zM736.5 0q13.5 0 22.5 9.5t9 22.5v64q0 13 -9 22.5t-22.5 9.5t-23 -9.5t-9.5 -22.5v-64q0 -13 9.5 -22.5t23 -9.5zM864.5 0q13.5 0 22.5 9.5t9 22.5v64q0 13 -9 22.5t-22.5 9.5t-23 -9.5t-9.5 -22.5v-64
q0 -13 9.5 -22.5t23 -9.5z" />
    <glyph glyph-name="uniE676" unicode="&#xe676;" 
d="M512 896q-139 0 -257 -68.5t-186.5 -186.5t-68.5 -257t68.5 -257t186.5 -186.5t257 -68.5t257 68.5t186.5 186.5t68.5 257t-68.5 257t-186.5 186.5t-257 68.5zM256 482q0 -13 -9.5 -22.5t-22.5 -9.5t-22.5 9.5t-9.5 22.5v64q0 13 9.5 22.5t22.5 9.5t22.5 -9.5t9.5 -22.5
v-64zM767 348q-12 -83 -73 -144q-76 -74 -182 -74t-182 74q-61 60 -73 144q-2 14 7.5 25t23.5 11q12 0 21 -8t11 -19q9 -62 55 -107q57 -56 137 -56t137 56q46 45 55 107q2 12 11 19.5t21 7.5q14 0 24 -11t7 -25zM831 482q0 -13 -9.5 -22.5t-22.5 -9.5t-22.5 9.5t-9.5 22.5
v64q0 13 9.5 22.5t22.5 9.5t22.5 -9.5t9.5 -22.5v-64z" />
    <glyph glyph-name="uniE677" unicode="&#xe677;" 
d="M512 832q91 0 174 -35q81 -34 143 -96t96 -143q35 -83 35 -174t-35 -174q-34 -81 -96 -143t-143 -96q-83 -35 -174 -35t-174 35q-81 34 -143 96t-96 143q-35 83 -35 174t35 174q34 81 96 143t143 96q83 35 174 35zM512 896q-139 0 -257 -68.5t-186.5 -186.5t-68.5 -257
t68.5 -257t186.5 -186.5t257 -68.5t257 68.5t186.5 186.5t68.5 257t-68.5 257t-186.5 186.5t-257 68.5zM224 450q-13 0 -22.5 9.5t-9.5 22.5v64q0 13 9.5 22.5t22.5 9.5t22.5 -9.5t9.5 -22.5v-64q0 -13 -9.5 -22.5t-22.5 -9.5zM799 450q-13 0 -22.5 9.5t-9.5 22.5v64
q0 13 9.5 22.5t22.5 9.5t22.5 -9.5t9.5 -22.5v-64q0 -13 -9.5 -22.5t-22.5 -9.5zM192 319zM832 319zM512 130q-106 0 -182 74q-61 60 -73 144q-2 14 7.5 25t23.5 11q12 0 21 -8t11 -19q9 -62 55 -107q57 -56 137 -56t137 56q46 45 55 107q2 12 11 19.5t21 7.5q14 0 24 -11
t7 -25q-12 -83 -73 -144q-76 -74 -182 -74z" />
    <glyph glyph-name="uniE678" unicode="&#xe678;" 
d="M512 896q-139 0 -257 -68.5t-186.5 -186.5t-68.5 -257t68.5 -257t186.5 -186.5t257 -68.5t257 68.5t186.5 186.5t68.5 257t-68.5 257t-186.5 186.5t-257 68.5zM256 482q0 -13 -9.5 -22.5t-22.5 -9.5t-22.5 9.5t-9.5 22.5v64q0 13 9.5 22.5t22.5 9.5t22.5 -9.5t9.5 -22.5
v-64zM768 288q0 -14 -9 -23t-23 -9h-448q-13 0 -22.5 9t-9.5 23q0 13 9.5 22.5t22.5 9.5h448q14 0 23 -9.5t9 -22.5zM831 482q0 -13 -9.5 -22.5t-22.5 -9.5t-22.5 9.5t-9.5 22.5v64q0 13 9.5 22.5t22.5 9.5t22.5 -9.5t9.5 -22.5v-64z" />
    <glyph glyph-name="uniE679" unicode="&#xe679;" 
d="M512 832q91 0 174 -35q81 -34 143 -96t96 -143q35 -83 35 -174t-35 -174q-34 -81 -96 -143t-143 -96q-83 -35 -174 -35t-174 35q-81 34 -143 96t-96 143q-35 83 -35 174t35 174q34 81 96 143t143 96q83 35 174 35zM512 896q-139 0 -257 -68.5t-186.5 -186.5t-68.5 -257
t68.5 -257t186.5 -186.5t257 -68.5t257 68.5t186.5 186.5t68.5 257t-68.5 257t-186.5 186.5t-257 68.5zM224 450q-13 0 -22.5 9.5t-9.5 22.5v64q0 13 9.5 22.5t22.5 9.5t22.5 -9.5t9.5 -22.5v-64q0 -13 -9.5 -22.5t-22.5 -9.5zM799 450q-13 0 -22.5 9.5t-9.5 22.5v64
q0 13 9.5 22.5t22.5 9.5t22.5 -9.5t9.5 -22.5v-64q0 -13 -9.5 -22.5t-22.5 -9.5zM192 319zM832 319zM736 256h-448q-13 0 -22.5 9t-9.5 23q0 13 9.5 22.5t22.5 9.5h448q14 0 23 -9.5t9 -22.5q0 -14 -9 -23t-23 -9z" />
    <glyph glyph-name="uniE67A" unicode="&#xe67a;" 
d="M1024 64h-1024v-32q0 -13 9.5 -22.5t22.5 -9.5h447v32h64v-32h449q13 0 22.5 9.5t9.5 22.5v32zM960 704v-512h-896v512h896zM960 768h-896q-26 0 -45 -19t-19 -45v-512q0 -27 19 -45.5t45 -18.5h896q26 0 45 18.5t19 45.5v512q0 26 -19 45t-45 19z" />
    <glyph glyph-name="uniE67B" unicode="&#xe67b;" 
d="M1024 387l-242 402q-13 22 -38 22h-459q-26 0 -39 -22l-246 -410v-90v-259q0 -30 21.5 -51.5t51.5 -21.5h878q30 0 51.5 21.5t21.5 51.5v259v98zM938 316l-60 -27h-129q-16 -2 -26 -11l-115 -102h-192l-115 102q-10 9 -26 11h-189v66l222 371h413l217 -363v-47z" />
    <glyph glyph-name="uniE67C" unicode="&#xe67c;" horiz-adv-x="1025" 
d="M773 305h248q3 24 3 53q0 124 -62 232q65 174 -15 256q-39 39 -136 32t-214 -59q-17 1 -36 1q-161 0 -286 -98.5t-163 -251.5q104 133 235 196q-16 -14 -68 -67q-90 -90 -156 -197.5t-94.5 -199t-28 -165t32.5 -105.5q52 -47 133 -42.5t185 55.5q98 -50 210 -50
q151 0 271 87t167 226h-250q-27 -49 -74.5 -78t-105 -29t-105 29t-74.5 78q-24 45 -24 96v1h407zM367 427q4 77 60.5 130.5t134 53.5t133.5 -53.5t61 -130.5h-389zM944 794q52 -53 4 -183q-80 122 -215 177q153 65 211 6v0zM98 -52q-32 36 -24.5 101.5t51.5 152.5
q27 -76 78 -138t119 -103q-77 -35 -134 -39t-90 26z" />
    <glyph glyph-name="uniE67D" unicode="&#xe67d;" 
d="M1000 406l-465 481q-10 9 -23 9t-23 -9l-464 -480q-9 -9 -9 -22.5t9 -22.5q9 -10 22.5 -10t22.5 10l58 58v-484q0 -27 19 -45.5t45 -18.5h639q27 0 45.5 18.5t18.5 45.5v484l60 -60q10 -9 23 -9t22 9q10 10 10 23t-10 23zM449 -64v256h127v-256h-127zM831 -64h-191v256
q0 26 -18.5 45t-45.5 19h-127q-26 0 -45 -19t-19 -45v-256h-193v548l320 335l319 -335v-548z" />
    <glyph glyph-name="uniE67E" unicode="&#xe67e;" horiz-adv-x="1025" 
d="M560 371q-14 -14 -7 -32q11 -27 11 -56q0 -63 -45 -108l-197 -197q-45 -45 -108.5 -45t-108 44.5t-44.5 108t45 108.5q137 137 192 190q9 9 9 22t-9 22t-21.5 9t-21.5 -9q-194 -192 -192 -192q-63 -62 -63 -150.5t63 -151.5q62 -62 150.5 -62t151.5 62l197 198
q46 46 58.5 109t-10.5 120q-6 15 -22 18.5t-28 -8.5zM464 397q14 14 7 32q-11 27 -11 56q0 63 45 108l198 197q44 45 107.5 45t108 -44.5t44.5 -108t-44 -108.5q-138 -137 -193 -190q-9 -9 -9 -22t9 -22t21.5 -9t21.5 9l192 192q63 62 63 150.5t-63 151.5q-62 62 -150.5 62
t-150.5 -62l-198 -198q-46 -46 -58.5 -109t10.5 -120q6 -15 22 -18.5t28 8.5z" />
    <glyph glyph-name="uniE67F" unicode="&#xe67f;" horiz-adv-x="1025" 
d="M888.5 697q-9.5 9 -22.5 9t-23 -9l-285 -435l-115 116q-13 12 -30 9q-10 -2 -17 -9l-258 -258q-10 -10 -10 -23t9.5 -22.5t23 -9.5t22.5 9l236 237l116 -116q10 -10 23 -10q14 0 24 10l306 457q10 9 10 22.5t-9.5 22.5zM993 -64h-897q-13 0 -22.5 9.5t-9.5 22.5v896
q0 13 -9.5 22.5t-22.5 9.5t-22.5 -9.5t-9.5 -22.5v-928q0 -26 19 -45t45 -19h929q13 0 22.5 9.5t9.5 22.5t-9.5 22.5t-22.5 9.5z" />
    <glyph glyph-name="uniE680" unicode="&#xe680;" 
d="M885 405q-41 41 -95 60q62 26 100 82t38 125q0 93 -65.5 158.5t-158.5 65.5q-71 0 -128.5 -41t-81.5 -106q-32 39 -77 61t-97 22q-93 0 -158.5 -65.5t-65.5 -158.5q0 -69 38 -125t100 -82q-54 -19 -95 -60q-75 -75 -75 -181v-191q0 -40 28 -68t68 -28h320q31 0 55.5 18
t34.5 46h294q40 0 68 28t28 68v191q0 106 -75 181zM591 785q47 47 113 47t113 -47t47 -113t-47 -113t-113 -47t-113 47t-47 113t47 113zM207 495q-47 47 -47 113t47 113t113 47t113 -47t47 -113t-47 -113t-113 -47t-113 47zM512 -31q0 -13 -9.5 -22.5t-22.5 -9.5h-320
q-13 0 -22.5 9.5t-9.5 22.5v191q0 79 56.5 135.5t135.5 56.5t136 -56q1 -2 2 -3q54 -55 54 -133v-191zM485 356q-36 30 -79 45q43 18 75.5 52t48.5 78q36 -44 88 -66q-54 -19 -95 -60q-22 -23 -38 -49zM896 33q0 -13 -9.5 -22.5t-22.5 -9.5h-288v159q0 80 -46 146
q15 30 38 53q57 57 136 57t135.5 -56.5t56.5 -135.5v-191z" />
    <glyph glyph-name="uniE681" unicode="&#xe681;" 
d="M321 415q0 -13 9.5 -22.5t22.5 -9.5h562l-155 -155q-9 -9 -9 -22.5t9 -22.5t22.5 -9t22.5 9l210 209q9 10 9 23t-9 23l-210 209q-9 9 -22.5 9t-22.5 -9t-9 -22.5t9 -22.5l155 -155h-562q-13 0 -22.5 -9.5t-9.5 -22.5zM992 128q-13 0 -22.5 -9.5t-9.5 -22.5v-160h-896v896
h896v-159q0 -13 9.5 -22.5t22.5 -9.5t22.5 9.5t9.5 22.5v159q0 26 -19 45t-45 19h-896q-26 0 -45 -19t-19 -45v-896q0 -26 19 -45t45 -19h896q26 0 45 19t19 45v160q0 13 -9.5 22.5t-22.5 9.5z" />
    <glyph glyph-name="uniE682" unicode="&#xe682;" 
d="M1024 709v0q-2 25 -20.5 42t-43.5 17h-896q-26 0 -45 -19t-19 -45v-640q0 -26 19 -45t45 -19h896q26 0 45 19t19 45v640v5zM912 704l-400 -303l-382 303h782zM960 64h-896v611l428 -339q19 -16 39 -1l429 325v-596z" />
    <glyph glyph-name="uniE683" unicode="&#xe683;" 
d="M991 639h-959q-13 0 -22.5 9.5t-9.5 22.5t9.5 22.5t22.5 9.5h959q13 0 22.5 -9.5t9.5 -22.5t-9.5 -22.5t-22.5 -9.5zM672 321h-640q-13 0 -22.5 9.5t-9.5 22.5q0 14 9.5 23t22.5 9h640q13 0 22.5 -9t9.5 -23q0 -13 -9.5 -22.5t-22.5 -9.5zM991 1h-959q-13 0 -22.5 9.5
t-9.5 22.5t9.5 22.5t22.5 9.5h959q13 0 22.5 -9.5t9.5 -22.5t-9.5 -22.5t-22.5 -9.5zM832 254v263q0 7 6.5 10t11.5 -1l170 -132q4 -3 4 -8.5t-4 -9.5l-170 -131q-5 -4 -11.5 -1t-6.5 10z" />
    <glyph glyph-name="uniE684" unicode="&#xe684;" 
d="M1 671q0 13 9.5 22.5t22.5 9.5h959q13 0 22.5 -9.5t9.5 -22.5t-9.5 -22.5t-22.5 -9.5h-959q-13 0 -22.5 9.5t-9.5 22.5zM320 353q0 14 9.5 23t22.5 9h640q13 0 22.5 -9t9.5 -23q0 -13 -9.5 -22.5t-22.5 -9.5h-640q-13 0 -22.5 9.5t-9.5 22.5zM1 33q0 13 9.5 22.5
t22.5 9.5h959q13 0 22.5 -9.5t9.5 -22.5t-9.5 -22.5t-22.5 -9.5h-959q-13 0 -22.5 9.5t-9.5 22.5zM174 245l-170 131q-4 4 -4 9.5t4 8.5l170 132q5 4 11.5 1t6.5 -10v-264q0 -6 -6.5 -9t-11.5 1z" />
    <glyph glyph-name="uniE685" unicode="&#xe685;" 
d="M832 822q0 30 -21 52t-50 22h-498q-29 0 -50 -22t-21 -52v-877q0 -30 21 -51.5t50 -21.5l498 2q29 0 50 21.5t21 51.5v875zM256 822q0 10 7 10h498q7 0 7 -10v-693h-512v693zM768 -53q0 -9 -7 -9l-498 -2v0q-7 0 -7 9v120h512v-118zM512 -32q-13 0 -22.5 9t-9.5 23
q0 13 9.5 22.5t22.5 9.5t22.5 -9.5t9.5 -22.5t-9.5 -22.5t-22.5 -9.5z" />
    <glyph glyph-name="uniE686" unicode="&#xe686;" 
d="M512 832q58 0 111 -22q51 -22 91 -61q39 -40 61 -91q22 -53 23 -110v-230q0 -24 9 -46t26 -39v0l43 -43h-728l45 45q16 16 24.5 36.5t8.5 42.5v233q0 58 22 111q22 51 62 91q40 39 91 61q53 22 111 22zM512 896q-95 0 -175.5 -46.5t-127.5 -127t-47 -174.5v-234
q0 -20 -14 -34l-67 -67q-17 -17 -17 -42v-10q0 -15 10 -25t24 -10h828q14 0 24 10t10 25v10q0 25 -17 42l-65 65q-16 16 -16 39v231q-1 94 -47.5 174.5t-127 127t-175.5 46.5zM512 -128q-71 0 -125 45t-67 113q-3 15 6.5 26.5t24.5 11.5q11 0 20 -7.5t11 -18.5
q10 -46 46 -76t84 -30t84 30t46 76q2 11 10.5 18.5t20.5 7.5q15 0 24.5 -11.5t6.5 -26.5q-13 -68 -67 -113t-125 -45z" />
    <glyph glyph-name="uniE687" unicode="&#xe687;" 
d="M935.5 660.5q-81.5 81.5 -197.5 81.5q-54 1 -105 -20q-52 -21 -92 -60l-268 -269q-46 -45 -45.5 -110t46 -110.5t109.5 -45.5h1q64 0 109 45l236 236q9 9 9 22.5t-9 22.5q-9 10 -22.5 10t-22.5 -10l-236 -235q-26 -27 -64 -27h-1q-38 0 -64.5 27t-27 65t26.5 65l269 268
q62 62 151 62t152 -63t63 -152t-62 -151l-285 -285q-91 -91 -221 -91t-222 92t-92 222t91 221l367 368q10 9 10 22.5t-10 22.5q-9 10 -22 10t-23 -10l-368 -368q-53 -53 -82 -124q-27 -68 -27 -142t28 -142q28 -71 83 -125q54 -54 125 -83q67 -28 142 -28h1q73 0 141 27
q70 28 124 82l285 285q40 40 61 93q20 50 20 104q0 116 -81.5 197.5z" />
    <glyph glyph-name="uniE688" unicode="&#xe688;" horiz-adv-x="1025" 
d="M827 832q15 0 36 -20q22 -20 50 -64q37 -57 45 -127q8 -73 -16 -155q-23 -79 -73 -160q-51 -80 -125 -154q-52 -52 -108 -93q-55 -41 -112 -68q-55 -27 -109 -41t-103 -14q-92 0 -164 47q-42 27 -62 47q-20 21 -22 37q-1 12 12 25q45 45 85 73q47 32 74 32h8q5 -3 16 -13
q12 -10 44 -41q41 -41 57 -52v-1h1q22 -15 50 -15q26 0 57 13t69 41v0q48 34 122 105l1 1l2 2q87 92 123 148q18 28 27 53q8 21 9 40q2 33 -16 58q-10 15 -49 54l-3 3v0q-30 30 -41 43q-10 11 -13 17q-7 22 26 72q28 45 79 95v0q12 12 23 12zM827 896q-38 0 -68 -30
q-55 -55 -88 -106q-49 -75 -33 -126q5 -15 20 -33t50 -53q37 -38 45 -49q15 -21 -22 -80q-32 -50 -116 -138q-71 -68 -115 -100q-58 -42 -89 -42q-8 0 -14 4q-12 9 -49 45q-35 35 -53 50t-33 20q-13 4 -27 4q-46 0 -110 -45q-45 -31 -95 -80q-34 -34 -29 -77q6 -63 112 -131
q88 -57 199 -57q116 0 240.5 61.5t236.5 173.5q79 78 134 165q55 88 80 176q56 192 -36 335q-33 50 -66.5 81.5t-73.5 31.5z" />
    <glyph glyph-name="uniE689" unicode="&#xe689;" 
d="M960 832h-896q-26 0 -45 -19t-19 -45v-768q0 -26 19 -45t45 -19h896q26 0 45 19t19 45v768q0 26 -19 45t-45 19zM64 768h896v-714l-236 348q-7 12 -21 14t-25 -7l-154 -125l-174 243q-10 14 -28 13t-26 -17l-232 -448v693zM919 0h-822l231 447l184 -255l179 145zM737 642
q13 0 22.5 -9.5t9.5 -22.5t-9.5 -22.5t-22.5 -9.5t-22.5 9.5t-9.5 22.5t9.5 22.5t22.5 9.5zM737 706q-40 0 -68 -28t-28 -68t28 -68t68 -28t68 28t28 68t-28 68t-68 28z" />
    <glyph glyph-name="uniE68A" unicode="&#xe68a;" 
d="M466 -128q96 0 181 36t150 101l-331 328v465q-94 0 -180.5 -36.5t-149 -99t-99.5 -148.5t-37 -180.5t37 -181t99.5 -148.5t149 -99t180.5 -37v0zM531 404h493q0 100 -39 191t-105 157t-157.5 105t-191.5 39v-492zM557 339l332 -327q64 64 99.5 148.5t35.5 178.5h-467z
" />
    <glyph glyph-name="uniE68B" unicode="&#xe68b;" 
d="M512 512q-13 0 -22.5 9.5t-9.5 22.5v320q0 13 9.5 22.5t22.5 9.5t22.5 -9.5t9.5 -22.5v-320q0 -13 -9.5 -22.5t-22.5 -9.5zM638 841v-6q0 -20 20 -27q14 -5 28 -11q81 -34 143 -96t96 -143q35 -83 35 -174t-35 -174q-34 -81 -96 -143t-143 -96q-83 -35 -174 -35t-174 35
q-81 34 -143 96t-96 143q-35 83 -35 174t35 174q34 81 96 143t143 96q14 6 26 10q22 8 22 30q0 17 -13.5 26.5t-29.5 4.5q-152 -53 -247.5 -185.5t-95.5 -298.5q0 -139 68.5 -257t186.5 -186.5t257 -68.5t257 68.5t186.5 186.5t68.5 257q0 167 -97 300t-250 185
q-15 5 -27 -4t-12 -24z" />
    <glyph glyph-name="uniE68C" unicode="&#xe68c;" horiz-adv-x="1025" 
d="M736 830q-67 0 -125.5 -30t-98.5 -82q-40 52 -98.5 82t-125.5 30q-119 0 -204 -89.5t-84 -214.5q1 -69 29.5 -129.5t77.5 -102.5q3 -3 9 -8q10 -9 170 -154.5t205 -185.5q9 -8 21 -8t21 8q34 30 185 167.5t197 178.5q51 42 80 103.5t29 131.5q0 125 -84.5 214t-203.5 89z
" />
    <glyph glyph-name="uniE68D" unicode="&#xe68d;" 
d="M512 832q26 0 54 -4l16 -46l10 -31l32 -9q32 -10 62 -26l29 -15l29 15l43 21q44 -34 78 -77l-22 -43l-14 -30l15 -29q15 -30 26 -62l9 -31l31 -11l46 -15q4 -29 4 -54v-1q0 -26 -4 -54l-46 -16l-31 -10l-10 -32q-9 -32 -25 -62l-16 -29l15 -29l22 -43q-18 -23 -36 -42h-1
q-18 -18 -41 -36l-43 22l-29 15l-29 -16q-30 -15 -62 -25l-32 -10l-10 -31l-15 -46q-29 -4 -55 -4t-55 4l-15 46l-10 31l-32 10q-33 10 -62 25l-29 16l-29 -15l-43 -22q-23 18 -42 36q-18 19 -36 42l22 43l15 29l-16 29q-16 31 -25 62l-10 32l-31 10l-46 15q-4 29 -4 55
t4 55l46 15l31 10l9 32q10 32 26 62l15 29l-14 29l-22 43q34 44 77 78l44 -22l29 -15l29 16q30 15 62 26l32 9l10 31l15 46q30 4 55 4zM512 896q-37 0 -81 -7l-22 -4l-28 -83q-39 -12 -73 -30l-78 39l-18 -13q-66 -48 -115 -114l-13 -18l40 -78q-19 -36 -31 -73l-83 -28
l-3 -22q-7 -44 -7 -81t7 -81l3 -22l83 -28q12 -38 31 -73l-39 -78l13 -18q24 -34 52 -62q26 -26 62 -52l18 -13l78 39q36 -19 73 -30l28 -84l22 -3q44 -7 81 -7t81 7l22 3l27 84q38 11 74 30l78 -39l18 13q35 26 62 52q27 27 52 62l13 18l-39 79q18 35 30 73l83 27l4 22
q7 44 7 81t-7 81l-4 22l-83 28q-12 38 -30 73l39 78l-13 18q-49 67 -115 115l-18 13l-78 -39q-35 18 -73 30l-27 83l-22 3q-44 7 -81 7zM512 510q52 0 89 -37t37 -89t-37 -89t-89 -37t-89 37t-37 89t37 89t89 37zM512 574q-79 0 -134.5 -55.5t-55.5 -134.5t55.5 -134.5
t134.5 -55.5t134.5 55.5t55.5 134.5t-55.5 134.5t-134.5 55.5z" />
    <glyph glyph-name="uniE68E" unicode="&#xe68e;" 
d="M774 652q50 0 86 35.5t36 86t-36 86.5t-86.5 36t-86.5 -36t-36 -86q0 -27 11 -51l-196 -178q-52 31 -114 31q-93 0 -158.5 -65.5t-65.5 -158.5t66 -158.5t158 -65.5q64 0 118 34l129 -117q-11 -24 -11 -51q0 -50 35.5 -86t86 -36t86.5 36t36 86.5t-36 86.5t-86 36
q-39 0 -70 -23l-121 109q57 64 57 149q0 88 -59 152l186 170q32 -22 71 -22zM773.5 832q24.5 0 41.5 -17t17 -41t-17 -41t-41.5 -17t-41.5 17t-17 41t17 41t41.5 17zM239 239q-47 47 -47 113t47 113t113 47t113 -47t47 -113t-46.5 -113t-113 -47t-113.5 47zM710 52
q24 0 41 -17t17 -41t-17 -41t-41 -17t-41 17t-17 41t17 41t41 17z" />
    <glyph glyph-name="uniE68F" unicode="&#xe68f;" horiz-adv-x="1025" 
d="M928 768h-832q-40 0 -68 -28t-28 -68v-578q0 -40 28 -68t68 -28h334q13 0 22.5 9.5t9.5 22.5t-9.5 22.5t-22.5 9.5h-334q-13 0 -22.5 9.5t-9.5 22.5v578q0 13 9.5 22.5t22.5 9.5h832q14 0 23 -9.5t9 -22.5v-546q0 -13 9.5 -22.5t22.5 -9.5q14 0 23 9.5t9 22.5v546
q0 40 -28 68t-68 28zM577 543q0 13 -9.5 22.5t-22.5 9.5h-384q-13 0 -22.5 -9.5t-9.5 -22.5t9.5 -22.5t22.5 -9.5h384q13 0 22.5 9.5t9.5 22.5zM449 416q0 13 -9.5 22.5t-22.5 9.5h-256q-13 0 -22.5 -9.5t-9.5 -22.5q0 -14 9.5 -23t22.5 -9h256q13 0 22.5 9t9.5 23zM161 320
q-13 0 -22.5 -9.5t-9.5 -22.5t9.5 -22.5t22.5 -9.5h192q13 0 22.5 9.5t9.5 22.5t-9.5 22.5t-22.5 9.5h-192zM842 136q-20 20 -44 33q35 37 35 88q0 53 -37.5 90.5t-90.5 37.5t-90.5 -37.5t-37.5 -90.5q0 -51 35 -88q-24 -13 -44 -33q-56 -55 -56 -134v-35q0 -13 9.5 -22.5
t22.5 -9.5q14 0 23 9.5t9 22.5v35q0 52 37 89t89 37h6q51 0 88 -37t37 -89v-35q0 -13 9.5 -22.5t22.5 -9.5t22.5 9.5t9.5 22.5v35q0 79 -55 134zM704.5 321q26.5 0 45.5 -18.5t19 -45.5t-19 -45.5t-45.5 -18.5t-45 18.5t-18.5 45.5t18.5 45.5t45 18.5z" />
    <glyph glyph-name="uniE690" unicode="&#xe690;" 
d="M1015 -73l-283 282q100 117 100 271q0 172 -122 294t-294 122t-294 -122t-122 -294t122 -294t294 -122q154 0 271 100l282 -283q10 -9 23 -9t23 9q9 10 9 23t-9 23zM553 156q-65 -28 -137 -28t-137 28q-63 26 -112 75t-75 112q-28 65 -28 137t28 137q26 63 75 112t112 75
q65 28 137 28t137 -28q63 -26 112 -75t75 -112q28 -65 28 -137t-28 -137q-26 -63 -75 -112t-112 -75z" />
    <glyph glyph-name="uniE691" unicode="&#xe691;" 
d="M512 512q-13 0 -22.5 9.5t-9.5 22.5v320q0 13 9.5 22.5t22.5 9.5t22.5 -9.5t9.5 -22.5v-320q0 -13 -9.5 -22.5t-22.5 -9.5zM638 841v-6q0 -20 20 -27q14 -5 28 -11q81 -34 143 -96t96 -143q35 -83 35 -174t-35 -174q-34 -81 -96 -143t-143 -96q-83 -35 -174 -35t-174 35
q-81 34 -143 96t-96 143q-35 83 -35 174t35 174q34 81 96 143t143 96q14 6 26 10q22 8 22 30q0 17 -13.5 26.5t-29.5 4.5q-152 -53 -247.5 -185.5t-95.5 -298.5q0 -139 68.5 -257t186.5 -186.5t257 -68.5t257 68.5t186.5 186.5t68.5 257q0 167 -97 300t-250 185
q-15 5 -27 -4t-12 -24z" />
    <glyph glyph-name="uniE692" unicode="&#xe692;" horiz-adv-x="1025" 
d="M993 191h-711l49 66l582 1q11 0 20 7t11 19l80 447q2 15 -7 26t-24 11l-742 2l-8 37q-3 11 -11.5 18.5t-19.5 7.5l-180 -1q-13 0 -22.5 -9t-9.5 -22t9.5 -22.5t22.5 -9.5h154l29 -138l68 -331l-89 -122q-12 -16 -3 -33.5t29 -17.5h94q-36 -32 -36 -81q0 -45 32 -77.5
t77.5 -32.5t78 32.5t32.5 77.5q0 49 -36 81h230q-36 -32 -36 -81q0 -45 32 -77.5t78 -32.5t78 32.5t32 77.5q0 49 -36 81h153q13 0 22.5 9.5t9.5 22.5t-9.5 22.5t-22.5 9.5zM956 706l-69 -386l-541 -1l-82 389zM388 0q-19 0 -32.5 13.5t-13.5 32.5t13.5 32.5t32.5 13.5
t32.5 -13.5t13.5 -32.5t-13.5 -32.5t-32.5 -13.5zM766 0q-19 0 -32.5 13.5t-13.5 32.5t13.5 32.5t32.5 13.5t32.5 -13.5t13.5 -32.5t-13.5 -32.5t-32.5 -13.5z" />
    <glyph glyph-name="uniE693" unicode="&#xe693;" horiz-adv-x="1025" 
d="M512 832q6 0 10 -7v0l117 -248l15 -31l33 -5l263 -40q7 -1 9 -9q3 -11 -3 -17l-190 -193l-23 -24l5 -32l45 -272q2 -11 -5 -16h-1q-2 -2 -5 -2q-2 0 -5 1l-234 129l-31 17l-31 -17l-234 -129h-1q-2 -1 -4 -1q-3 0 -5 2h-1q-7 6 -5 16l45 272l5 32l-23 24l-190 193
q-6 7 -3 17q2 8 9 9l263 40l33 5l15 31l117 248q4 7 10 7zM512 896q-22 0 -40 -12t-28 -32l-117 -248l-262 -40q-22 -3 -38.5 -17.5t-23 -36t-1.5 -43t21 -37.5l190 -193l-45 -273q-4 -22 4 -43t26 -34q20 -15 44 -15q19 0 36 9l234 129l235 -129q16 -9 35 -9q25 0 44 15
q18 13 26 34t4 43l-44 273l189 193q16 15 21 37t-1.5 43.5t-23 36t-38.5 17.5l-262 40l-117 248q-10 20 -28 32t-40 12z" />
    <glyph glyph-name="uniE694" unicode="&#xe694;" 
d="M1020.5 510.5q-6.5 21.5 -23 36t-38.5 17.5l-262 40l-117 248q-10 20 -28 32t-40 12t-40 -12t-28 -32l-117 -248l-262 -40q-22 -3 -38.5 -17.5t-23 -36t-1.5 -43t21 -37.5l190 -193l-45 -273q-4 -22 4 -43t26 -34q20 -15 44 -15q19 0 36 9l234 129l235 -129q16 -9 35 -9
q25 0 44 15q18 13 26 34t4 43l-44 273l189 193q16 15 21 37t-1.5 43.5z" />
    <glyph glyph-name="uniE695" unicode="&#xe695;" 
d="M512 33q14 0 23.5 -9.5t9.5 -23.5t-9.5 -23.5t-23.5 -9.5t-23.5 9.5t-9.5 23.5t9.5 23.5t23.5 9.5zM959 832q0 26 -19 45t-45 19h-765q-26 0 -45 -19t-19 -45v-896q0 -27 19 -45.5t46 -18.5l764 2q26 0 45 18.5t19 45.5v894zM892 -30q0 -13 -9.5 -22.5t-22.5 -9.5h-695
q-13 0 -22.5 9.5t-9.5 22.5v91h759v-91zM892 125h-759v668q0 15 9.5 25.5t22.5 10.5h695q13 0 22.5 -10.5t9.5 -25.5v-668z" />
    <glyph glyph-name="uniE696" unicode="&#xe696;" 
d="M980 413q-31 46 -76 76q-3 51 -22 96q-23 53 -67 97q-44 42 -98 64t-116 22q-93 0 -169 -51q-45 -30 -77 -73q-24 8 -52 8q-37 0 -70 -13.5t-59 -39.5q-27 -26 -41 -58q-14 -33 -14 -70q0 -13 2 -26q-38 -22 -67 -57q-54 -65 -54 -149q0 -50 18 -93q18 -42 53.5 -76.5
t79 -52t92.5 -17.5h508q55 0 104 19.5t88.5 58.5t59.5 86q21 49 21 104q0 79 -44 145zM781 371.5q-9 -9.5 -22.5 -9.5t-22.5 9l-95 95v-306q0 -13 -9.5 -22.5t-22.5 -9.5t-22.5 9.5t-9.5 22.5v306l-95 -95q-9 -9 -22.5 -9t-22.5 9.5t-9 22.5t9 23l149 149q10 9 23 9t23 -9
l149 -149q9 -10 9 -23t-9 -22.5z" />
    <glyph glyph-name="uniE697" unicode="&#xe697;" 
d="M602 704q49 0 91 -17v0q43 -17 77 -51q35 -34 53 -76q15 -34 17 -75l2 -32l27 -17q32 -21 55 -54l3 -5q16 -25 25 -52q8 -27 8 -57q0 -42 -15 -78q-16 -36 -46.5 -66t-67.5 -45t-80 -15h-508q-37 0 -69 13v0q-31 13 -57 38q-27 26 -40 57v0q-13 31 -13 67q0 30 10 57.5
t29 51.5v0q22 26 50 42l38 22l-6 43q-1 7 -1 17q0 23 8 44v0q9 21 27 38q17 17 38 25q22 9 46 9q19 0 35 -5l43 -13l26 37q25 33 61 57v0q60 40 134 40zM602 768q-94 0 -170 -51q-45 -30 -76 -73q-25 8 -53 8q-37 0 -70 -13.5t-59 -39.5q-27 -26 -41 -58q-13 -33 -13 -70
q0 -13 1 -26q-38 -22 -67 -57q-54 -65 -54 -149q0 -50 18 -93q18 -42 53.5 -76.5t79 -52t92.5 -17.5h508q55 0 104 19.5t88.5 58.5t59.5 86q21 49 21 104q0 79 -44 145q-31 46 -76 76q-3 51 -22 97q-23 52 -67 96q-44 42 -98 64q-53 22 -115 22zM641 160v306l95 -95
q9 -9 22.5 -9t22.5 9q9 10 9 23t-9 23l-149 149q-10 9 -23 9t-23 -9l-149 -149q-9 -10 -9 -23t9 -23q9 -9 22.5 -9t22.5 9l95 95v-306q0 -13 9.5 -22.5t22.5 -9.5t22.5 9.5t9.5 22.5z" />
    <glyph glyph-name="uniE698" unicode="&#xe698;" 
d="M602 704q49 0 91 -17v0q43 -17 77 -51q35 -34 53 -76q15 -34 17 -75l2 -32l27 -17q32 -21 55 -54l3 -5q16 -25 25 -52q8 -27 8 -57q0 -42 -15 -78q-16 -36 -46.5 -66t-67.5 -45t-80 -15h-508q-37 0 -69 13v0q-31 13 -57 38q-27 26 -40 57v0q-13 31 -13 67q0 30 10 57.5
t29 51.5v0q22 26 50 42l38 22l-6 43q-1 7 -1 17q0 23 8 44v0q9 21 27 38q17 17 38 25q22 9 46 9q19 0 35 -5l43 -13l26 37q25 33 61 57v0q60 40 134 40zM602 768q-94 0 -170 -51q-45 -30 -76 -73q-25 8 -53 8q-37 0 -70 -13.5t-59 -39.5q-27 -26 -41 -58q-13 -33 -13 -70
q0 -13 1 -26q-38 -22 -67 -57q-54 -65 -54 -149q0 -50 18 -93q18 -42 53.5 -76.5t79 -52t92.5 -17.5h508q55 0 104 19.5t88.5 58.5t59.5 86q21 49 21 104q0 79 -44 145q-31 46 -76 76q-3 51 -22 97q-23 52 -67 96q-44 42 -98 64q-53 22 -115 22zM609 575q-13 0 -22.5 -9
t-9.5 -23v-306l-95 95q-9 9 -22.5 9t-22.5 -9t-9 -22.5t9 -22.5l149 -150q10 -9 23 -9t23 9l149 150q9 9 9 22.5t-9 22.5t-22.5 9t-22.5 -9l-95 -95v306q0 14 -9.5 23t-22.5 9z" />
    <glyph glyph-name="uniE699" unicode="&#xe699;" 
d="M602 704q49 0 91 -17v0q43 -17 77 -51q35 -34 53 -76q15 -34 17 -75l2 -32l27 -17q32 -21 55 -54l3 -5q16 -25 25 -52q8 -27 8 -57q0 -42 -15 -78q-16 -36 -46.5 -66t-67.5 -45t-80 -15h-508q-37 0 -69 13v0q-31 13 -57 38q-27 26 -40 57v0q-13 31 -13 67q0 30 10 57.5
t29 51.5v0q22 26 50 42l38 22l-6 43q-1 7 -1 17q0 23 8 44v0q9 21 27 38q17 17 38 25q22 9 46 9q19 0 35 -5l43 -13l26 37q25 33 61 57v0q60 40 134 40zM602 768q-94 0 -170 -51q-45 -30 -76 -73q-25 8 -53 8q-37 0 -70 -13.5t-59 -39.5q-27 -26 -41 -58q-13 -33 -13 -70
q0 -13 1 -26q-38 -22 -67 -57q-54 -65 -54 -149q0 -50 18 -93q18 -42 53.5 -76.5t79 -52t92.5 -17.5h508q55 0 104 19.5t88.5 58.5t59.5 86q21 49 21 104q0 79 -44 145q-31 46 -76 76q-3 51 -22 97q-23 52 -67 96q-44 42 -98 64q-53 22 -115 22z" />
    <glyph glyph-name="uniE69A" unicode="&#xe69a;" 
d="M726 729l-158 158q-9 9 -22.5 9t-22.5 -9l-158 -158q-10 -10 -10 -23t10 -23q9 -9 22.5 -9t22.5 9l104 104v-692q0 -13 9 -22.5t23 -9.5q13 0 22.5 9.5t9.5 22.5v692l103 -104q9 -9 22.5 -9t22.5 9q9 10 9 23t-9 23zM1024 -96q0 -13 -9.5 -22.5t-22.5 -9.5h-960
q-13 0 -22.5 9.5t-9.5 22.5t9.5 22.5t22.5 9.5h960q13 0 22.5 -9.5t9.5 -22.5z" />
    <glyph glyph-name="uniE69B" unicode="&#xe69b;" 
d="M1013 569q-17 14 -36 4l-139 -74v203q0 26 -19 45t-45 19h-710q-26 0 -45 -19t-19 -45v-637q0 -26 19 -45t45 -19h710q26 0 45 19t19 45v220l137 -87q8 -5 17 -5q11 0 20 7q12 9 12 25v319q0 15 -11 25zM742 65h-646q-13 0 -22.5 9.5t-9.5 22.5v573q0 13 9.5 22.5
t22.5 9.5h646q13 0 22.5 -9.5t9.5 -22.5v-573q0 -13 -9.5 -22.5t-22.5 -9.5zM960 283l-121 77v67l121 64v-208z" />
    <glyph glyph-name="uniE69C" unicode="&#xe69c;" 
d="M803 249q-24 57 -68 101t-101 68l-2 1q30 17 55 42q75 74 75 180q0 105 -74.5 180t-180.5 75t-180.5 -74.5t-74.5 -180.5t75 -180q26 -26 58 -44q-57 -24 -100 -67q-44 -44 -68 -101q-25 -59 -25 -124v-221q0 -13 9.5 -22.5t22.5 -9.5t22.5 9.5t9.5 22.5v221
q0 105 74.5 179.5t179.5 74.5t179.5 -74.5t74.5 -179.5v-221q0 -13 9.5 -22.5t22.5 -9.5t22.5 9.5t9.5 22.5v221q0 64 -25 124zM316 641q0 79 56 135t135 56t135 -56t56 -135t-56 -135t-135 -56t-135 56t-56 135z" />
    <glyph glyph-name="uniE69D" unicode="&#xe69d;" 
d="M897 448v42q0 82 -31 158q-29 73 -82 129t-122 87q-72 32 -150 32t-150 -32q-69 -31 -122 -87.5t-83 -128.5q-30 -76 -30 -158v-42v-64v-156v-283q0 -30 20.5 -51.5t48.5 -21.5h632q28 0 48.5 21.5t20.5 51.5v439v42v22zM191 490q0 70 26 134q25 62 69 109q45 47 102 72
h1q58 27 123 27q64 0 123 -26q58 -26 102 -73q45 -48 70 -109q26 -64 26 -134v-42h-642v42zM833 -55q0 -9 -5 -9h-632q-5 0 -5 9v283v156h642v-439zM575 256q0 26 -18.5 44.5t-44.5 18.5t-44.5 -18.5t-18.5 -44.5q0 -36 31 -55v-106q0 -13 9.5 -22.5t22.5 -9.5t22.5 9.5
t9.5 22.5v107q31 18 31 54z" />
    <glyph glyph-name="uniE69E" unicode="&#xe69e;" 
d="M1015 651l-236 236q-9 9 -22 9h-693q-26 0 -45 -19t-19 -45v-896q0 -26 19 -45t45 -19h896q26 0 45 19t19 45v693q0 13 -9 22zM641 640h-386v192h386v-192zM960 -64h-896v896h127v-192q0 -26 19 -45t45 -19h386q26 0 45 19t19 45v192h39l216 -216v-680zM641 415
q0 -13 -9.5 -22.5t-22.5 -9.5h-386q-13 0 -22.5 9.5t-9.5 22.5t9.5 22.5t22.5 9.5h386q13 0 22.5 -9.5t9.5 -22.5zM641 225q0 -13 -9.5 -22.5t-22.5 -9.5h-386q-13 0 -22.5 9.5t-9.5 22.5t9.5 22.5t22.5 9.5h386q13 0 22.5 -9.5t9.5 -22.5z" />
    <glyph glyph-name="uniE69F" unicode="&#xe69f;" 
d="M512 63q-13 0 -22.5 9.5t-9.5 22.5v128q0 14 9.5 23t22.5 9t22.5 -9t9.5 -23v-128q0 -13 -9.5 -22.5t-22.5 -9.5zM867 648q-30 73 -83 129t-122 87q-72 32 -150 32t-150 -32q-69 -31 -122 -87.5t-83 -128.5q-6 -16 -10 -30q-5 -16 4.5 -29t25.5 -13q24 0 31 22q4 13 9 26
q25 61 70 108q44 48 101 73h1q58 27 123 27q64 0 123 -26q58 -26 102 -73q45 -48 70 -109q26 -64 26 -134v-42h-521h-121q-26 0 -45 -19t-19 -45v-156v-283q0 -30 20.5 -51.5t48.5 -21.5h632q28 0 48.5 21.5t20.5 51.5v439v42v22v42q0 82 -30 158zM833 -55q0 -9 -5 -9h-632
q-5 0 -5 9v283v156h642v-439z" />
    <glyph glyph-name="uniE6A0" unicode="&#xe6a0;" 
d="M515 342v-387l509 -83v470h-509zM1024 426v470l-509 -84v-386h509zM430 426v372l-430 -72v-300h430zM0 342v-303l430 -70v373h-430z" />
    <glyph glyph-name="uniE6A1" unicode="&#xe6a1;" 
d="M512 857q0 -15 10 -25.5t24 -11.5q71 -6 136 -33q79 -33 139.5 -93.5t93.5 -139.5q27 -65 33 -136q1 -14 11.5 -24t25.5 -10q16 0 27.5 12t9.5 28q-9 124 -73.5 228t-168.5 168.5t-228 73.5q-16 2 -28 -9.5t-12 -27.5z" />
    <glyph glyph-name="uniE6A2" unicode="&#xe6a2;" horiz-adv-x="1025" 
d="M959 383q-6 28 -21 57q19 37 13 75q-6 42 -42 74q14 39 6 76q-11 44 -52 75q-1 8 -3 17q-9 41 -37 71q-60 66 -191 66h-2q-67 0 -125.5 -7.5t-86 -15t-70.5 -21.5q-68 -22 -104 -22h-172q-30 0 -51 -21t-21 -51v-392q0 -30 21.5 -51t51.5 -21h122q33 0 61 -17
q38 -23 74 -60q66 -71 87 -167q2 -9 6 -31q8 -50 18 -74q21 -46 67 -61q33 -11 66 -8q39 3 70 26q33 24 50 67q18 44 18 108v2q-5 67 -24 119h116q43 0 79 21q24 14 45 40t29 60q8 32 2 66zM72 764h120v-409h-119q-9 0 -9 9v392q0 8 8 8zM874 423q31 -49 21 -91
q-9 -39 -44 -60q-21 -12 -47 -12h-126q-31 0 -48 -25.5t-5 -54.5q18 -43 23 -106q0 -92 -42 -123q-32 -23 -79 -8q-19 6 -27 24t-14 60q-4 24 -6 35q-26 113 -104 197q-41 43 -87 71q-16 9 -33 15v419q41 2 112 25q40 13 65.5 20t80 14t116.5 7h2q102 0 143 -44
q26 -28 24 -61q-2 -19 16 -30q31 -19 37 -44q7 -27 -10 -54q-7 -11 -4.5 -24t13.5 -20q33 -22 37 -47q4 -24 -12 -46q-15 -17 -2 -37z" />
    <glyph glyph-name="uniE6A3" unicode="&#xe6a3;" horiz-adv-x="1025" 
d="M958 451q-9 34 -30 60t-45 40q-36 21 -79 21h-116q19 52 24 118v3q0 63 -18 108q-17 43 -50 67q-31 23 -70 26q-33 3 -66 -8q-46 -15 -67 -61q-10 -24 -18 -74q-4 -21 -6 -31q-21 -96 -87 -167q-35 -37 -74 -60q-28 -16 -61 -16h-122q-30 0 -51.5 -21.5t-21.5 -51.5v-392
q0 -30 21 -51t51 -21h172q36 0 104 -22q43 -14 70.5 -21t86 -15t125.5 -8h2q131 0 191 66q28 31 37 71q2 9 3 17q41 31 52 75q8 37 -6 76q36 33 42 74q6 38 -13 75q15 28 21 57q6 34 -1 66zM64 12v392q0 9 9 9h119v-409h-120q-8 0 -8 8zM876 308q16 -22 12 -46
q-4 -25 -37 -47q-11 -8 -13.5 -20.5t4.5 -23.5q17 -27 10 -54q-6 -25 -37 -44q-18 -11 -16 -30q2 -33 -24 -61q-41 -44 -144 -45h-1q-62 0 -116.5 7.5t-80.5 14.5t-65 20q-71 23 -112 25v419q17 6 33 15q46 28 87 71q78 83 104 197q3 13 6 35q6 42 14 60t27 24q47 15 79 -8
q42 -31 42 -123q-5 -63 -23 -106q-12 -29 5 -54.5t48 -25.5h126q26 0 46 -12q36 -21 45 -60q10 -42 -21 -91q-13 -20 2 -37z" />
    <glyph glyph-name="uniE6A4" unicode="&#xe6a4;" horiz-adv-x="1025" 
d="M916 704q18 0 31 -13t13 -31v-488q0 -18 -13 -31t-31 -13h-664h-12l-12 -5l-141 -57q-10 -2 -18 -2h-5q2 11 9 26l1 1v1l50 116l5 12v13v427q0 18 13 31t31 13h743zM916 768h-743q-45 0 -76.5 -31.5t-31.5 -76.5v-427l-49 -115q-26 -53 -10.5 -85.5t63.5 -32.5q17 0 37 4
l146 60h664q45 0 76.5 31.5t31.5 76.5v488q0 45 -32 76.5t-76 31.5zM352 384q-14 0 -23 9.5t-9 22.5v64q0 13 9 22.5t23 9.5q13 0 22.5 -9.5t9.5 -22.5v-64q0 -13 -9.5 -22.5t-22.5 -9.5zM544 384q-13 0 -22.5 9.5t-9.5 22.5v64q0 13 9.5 22.5t22.5 9.5t22.5 -9.5t9.5 -22.5
v-64q0 -13 -9.5 -22.5t-22.5 -9.5zM737 384q-14 0 -23 9.5t-9 22.5v64q0 13 9 22.5t23 9.5q13 0 22.5 -9.5t9.5 -22.5v-64q0 -13 -9.5 -22.5t-22.5 -9.5z" />
    <glyph glyph-name="uniE6A5" unicode="&#xe6a5;" 
d="M512 -7h56v-55h-56v55zM512 719h-56v-112h56v56h56v56h56v56h-56v55h-168v-55h112v-56zM66 440h56v-56h-56v56zM903 384h55v-56h-55v56zM903 -7h55v-55h-55v55zM847 496v-112h-112v112h-167v111h-56v-111h-56v-56h223v-56h-167v-56h56v-111h111v55h-55v56h223v56h56v112
h-56zM456 161v111h-56v-167h56v-56h-56v-56h112v112h192v56h-248zM121 496h112v-56h-112v56zM568 49h56v-56h-56v56zM904 254h55v-55h-55v55zM66 328h56v-56h-56v56zM456 440h-111v56h-56v-56h-56v-56h56v-112h56v112h111v56zM289 830h-168q-23 0 -39 -16t-16 -39v-168
q0 -23 16 -39.5t39 -16.5h168q23 0 39.5 16.5t16.5 39.5v168q0 23 -16.5 39t-39.5 16zM289 607h-168v168h168v-168zM177 719h56v-56h-56v56zM903 830h-168q-23 0 -39.5 -16t-16.5 -39v-168q0 -23 16.5 -39.5t39.5 -16.5h168q23 0 39 16.5t16 39.5v168q0 23 -16 39t-39 16z
M903 607h-168v168h168v-168zM791 719h56v-56h-56v56zM735 161v-168h168v168h-168zM847 49h-56v56h56v-56zM289 217h-168q-23 0 -39 -16.5t-16 -39.5v-168q0 -23 16 -39t39 -16h168q23 0 39.5 16t16.5 39v168q0 23 -16.5 39.5t-39.5 16.5zM289 -7h-168v168h168v-168zM177 105
h56v-56h-56v56z" />
    <glyph glyph-name="uniE6A6" unicode="&#xe6a6;" 
d="M637 832l195 -218v-669q0 -3 -4 -6t-9 -3h-614q-5 0 -9 3t-4 6v878q0 3 4 6t9 3h432zM666 896h-461q-32 0 -54.5 -21.5t-22.5 -51.5v-878q0 -30 22.5 -51.5t54.5 -21.5h614q32 0 54.5 21.5t22.5 51.5v694zM640 640v256h-64v-256q0 -26 19 -45t45 -19h253v64h-253z
M512 122q-13 0 -22.5 9t-9.5 23v2q0 34 19 62t51 41q28 12 45 37.5t17 55.5q0 42 -29 71.5t-71 29.5q-35 0 -62 -21.5t-35 -54.5q-3 -11 -11.5 -18t-19.5 -7q-16 0 -25.5 12.5t-5.5 27.5q13 54 57.5 89t101.5 35q68 0 116 -48t48 -116q0 -51 -29 -92q-27 -41 -73 -60
q-30 -12 -30 -44v-2q0 -14 -9.5 -23t-22.5 -9zM511 -1q-13 0 -22.5 9.5t-9.5 22.5t9.5 22.5t22.5 9.5t22.5 -9.5t9.5 -22.5t-9.5 -22.5t-22.5 -9.5z" />
    <glyph glyph-name="uniE6A7" unicode="&#xe6a7;" 
d="M637 832l195 -218v-669q0 -3 -4 -6t-9 -3h-614q-5 0 -9 3t-4 6v878q0 3 4 6t9 3h432zM666 896h-461q-32 0 -54.5 -21.5t-22.5 -51.5v-878q0 -30 22.5 -51.5t54.5 -21.5h614q32 0 54.5 21.5t22.5 51.5v694zM640 640v256h-64v-256q0 -26 19 -45t45 -19h253v64h-253z
M641 321v127v-127zM641 512h-257q-26 0 -45 -18.5t-19 -44.5v-416q0 -13 9 -22.5t23 -9.5q13 0 22.5 9.5t9.5 22.5v224h257q27 0 45.5 18.5t18.5 45.5v127q0 27 -18.5 45.5t-45.5 18.5zM609 321h-193q-14 0 -23 9.5t-9 22.5v63q0 14 9 23t23 9h193q14 0 23 -9t9 -23v-63
q0 -13 -9 -22.5t-23 -9.5z" />
    <glyph glyph-name="uniE6A8" unicode="&#xe6a8;" 
d="M512 896q-139 0 -257 -68.5t-186.5 -186.5t-68.5 -257t68.5 -257t186.5 -186.5t257 -68.5t257 68.5t186.5 186.5t68.5 257t-68.5 257t-186.5 186.5t-257 68.5zM364 692q9 10 22.5 10t22.5 -10l103 -102l103 102q9 10 22.5 10t22.5 -10q9 -9 9 -22.5t-9 -22.5l-125 -125
q-9 -9 -22.5 -9.5t-22.5 9.5l-126 125q-9 9 -9 22.5t9 22.5zM769 418q0 -13 -9 -22.5t-23 -9.5h-193v-132h128q14 0 23 -9.5t9 -22.5t-9 -22.5t-23 -9.5h-128v-92q0 -13 -9.5 -22.5t-22.5 -9.5t-22.5 9.5t-9.5 22.5v92h-125q-14 0 -23 9.5t-9 22.5t9 22.5t23 9.5h125v132
h-191q-14 0 -23 9.5t-9 22.5t9 22.5t23 9.5h448q14 0 23 -9.5t9 -22.5z" />
    <glyph glyph-name="uniE6A9" unicode="&#xe6a9;" 
d="M512 896q-139 0 -257 -68.5t-186.5 -186.5t-68.5 -257t68.5 -257t186.5 -186.5t257 -68.5t257 68.5t186.5 186.5t68.5 257t-68.5 257t-186.5 186.5t-257 68.5zM829 67q-62 -62 -143 -96q-83 -35 -174 -35t-174 35q-81 34 -143 96t-96 143q-35 83 -35 174t35 174
q34 81 96 143t143 96q83 35 174 35t174 -35q81 -34 143 -96t96 -143q35 -83 35 -174t-35 -174q-34 -81 -96 -143zM490 522q9 -9 22.5 -9t22.5 9l125 125q9 9 9 22.5t-9 22.5q-9 10 -22.5 10t-22.5 -10l-103 -102l-103 102q-9 10 -22.5 10t-22.5 -10q-9 -9 -9 -22.5t9 -22.5z
M737 450h-448q-14 0 -23 -9.5t-9 -22.5t9 -22.5t23 -9.5h191v-132h-125q-14 0 -23 -9.5t-9 -22.5t9 -22.5t23 -9.5h125v-92q0 -13 9.5 -22.5t22.5 -9.5t22.5 9.5t9.5 22.5v92h128q14 0 23 9.5t9 22.5t-9 22.5t-23 9.5h-128v132h193q14 0 23 9.5t9 22.5t-9 22.5t-23 9.5z" />
    <glyph glyph-name="uniE6AA" unicode="&#xe6aa;" 
d="M637 832l195 -218v-669q0 -3 -4 -6t-9 -3h-614q-5 0 -9 3t-4 6v878q0 3 4 6t9 3h432zM666 896h-461q-32 0 -54.5 -21.5t-22.5 -51.5v-878q0 -30 22.5 -51.5t54.5 -21.5h614q32 0 54.5 21.5t22.5 51.5v694zM640 640v256h-64v-256q0 -26 19 -45t45 -19h253v64h-253z
M451 448q0 27 -19 45.5t-45 18.5h-97q-13 0 -22.5 -9t-9.5 -23q0 -13 9.5 -22.5t22.5 -9.5h65q13 0 22.5 -9t9.5 -23v-319q0 -13 -9.5 -22.5t-22.5 -9.5h-1q-13 0 -22.5 9t-9.5 22v62q0 14 -9.5 23t-22.5 9t-22.5 -9t-9.5 -23v-31v-62q0 -26 19 -45t45 -19h65q26 0 45 19
t19 45v383zM515 448v-416q0 -13 9.5 -22.5t22.5 -9.5t22.5 9.5t9.5 22.5v225h123q26 0 45 18.5t19 45.5v127q0 27 -19 45.5t-45 18.5h-123q-27 0 -45.5 -18.5t-18.5 -45.5zM579 353v63q0 14 9.5 23t22.5 9h59q13 0 22.5 -9t9.5 -23v-63q0 -13 -9.5 -22.5t-22.5 -9.5h-59
q-13 0 -22.5 9.5t-9.5 22.5zM736 -1q-14 0 -23 9.5t-9 22.5t9 22.5t23 9.5q13 0 22.5 -9.5t9.5 -22.5t-9.5 -22.5t-22.5 -9.5z" />
    <glyph glyph-name="uniE6AB" unicode="&#xe6ab;" 
d="M666 896h-26h-64h-371q-32 0 -54.5 -21.5t-22.5 -51.5v-878q0 -30 22.5 -51.5t54.5 -21.5h614q32 0 54.5 21.5t22.5 51.5v694zM809 640h-169v189zM819 -64h-614q-5 0 -9 3t-4 6v878q0 3 4 6t9 3h371v-192q0 -26 19 -45t45 -19h192v-631q0 -3 -4 -6t-9 -3zM769 188
q-1 7 -8 13q-15 15 -68 16q-35 0 -81 -6q-26 15 -38 26q-44 42 -68 106q1 4 3 11q2 10 4.5 26t6 49.5t1.5 47.5q-1 5 -2 9l-2 4q-9 21 -26 20l-9 1q-25 0 -30 -20q-12 -44 18 -161l-4 -12q-13 -31 -45 -93l-1 -4q-22 -42 -42 -77l-14 -7q-14 -7 -28 -16q-71 -42 -79 -80
q-3 -16 7 -22l13 -7q8 -4 17 -4q46 0 119 128q92 30 184 44q34 -19 71 -31t63 -12q9 0 16 2q10 3 16 11q9 14 6 38zM287 32q5 13 22 34.5t41 40.5q1 2 12 11q-46 -73 -75 -86zM488 494q7 0 11.5 -15t4.5 -35q1 -30 -12 -53q-9 27 -9 67q0 36 5 36zM428 165v0v0q13 23 22 40
q23 44 38 85q26 -47 64 -80q3 -2 10 -8q-75 -15 -134 -37zM751 168q-5 -3 -18 -3q-21 0 -73 22q19 1 34 1q24 0 42 -4q8 -2 12.5 -6t4 -6.5t-1.5 -3.5z" />
    <glyph glyph-name="uniE6AC" unicode="&#xe6ac;" 
d="M637 832l195 -218v-669q0 -3 -4 -6t-9 -3h-614q-5 0 -9 3t-4 6v878q0 3 4 6t9 3h432zM666 896h-461q-32 0 -54.5 -21.5t-22.5 -51.5v-878q0 -30 22.5 -51.5t54.5 -21.5h614q32 0 54.5 21.5t22.5 51.5v694zM640 640v256h-64v-256q0 -26 19 -45t45 -19h253v64h-253z
M673 510q-14 0 -22 -10l-139 -167l-139 167q-8 10 -22 10q-18 0 -25.5 -16.5t3.5 -30.5l146 -175l-146 -175q-11 -14 -3.5 -30.5t25.5 -16.5q14 0 22 10l139 168l139 -168q8 -10 22 -10q18 0 25.5 16.5t-3.5 30.5l-146 175l146 176q11 13 3.5 29.5t-25.5 16.5z" />
    <glyph glyph-name="uniE6AD" unicode="&#xe6ad;" 
d="M960 -127q26 0 45 19t19 45v894q0 27 -19 45.5t-45 18.5h-896q-26 0 -45 -18.5t-19 -45.5v-894q0 -26 19 -45t45 -19h896zM960 -63h-896v894h896v-894zM832 384q0 -13 -9.5 -22.5t-22.5 -9.5h-576q-13 0 -22.5 9.5t-9.5 22.5t9.5 22.5t22.5 9.5h576q13 0 22.5 -9.5
t9.5 -22.5z" />
    <glyph glyph-name="uniE6AE" unicode="&#xe6ae;" 
d="M960 -127q26 0 45 19t19 45v894q0 27 -19 45.5t-45 18.5h-896q-26 0 -45 -18.5t-19 -45.5v-894q0 -26 19 -45t45 -19h896zM960 -63h-896v894h896v-894zM800 416h-256v256q0 13 -9.5 22.5t-22.5 9.5t-22.5 -9.5t-9.5 -22.5v-256h-256q-13 0 -22.5 -9.5t-9.5 -22.5
t9.5 -22.5t22.5 -9.5h256v-256q0 -13 9.5 -22.5t22.5 -9.5t22.5 9.5t9.5 22.5v256h256q13 0 22.5 9.5t9.5 22.5t-9.5 22.5t-22.5 9.5z" />
    <glyph glyph-name="uniE6AF" unicode="&#xe6af;" 
d="M64 896q-26 0 -45 -19t-19 -45v-2v-155q0 -14 9.5 -23.5t23.5 -9.5t23.5 9.5t9.5 23.5v123q0 13 9.5 22.5t22.5 9.5h123q14 0 23.5 9.5t9.5 23.5t-9.5 23.5t-23.5 9.5h-155h-2zM0 -64q0 -26 19 -45t45 -19h2h155q14 0 23.5 9.5t9.5 23.5t-9.5 23.5t-23.5 9.5h-123
q-13 0 -22.5 9.5t-9.5 22.5v123q0 14 -9.5 23.5t-23.5 9.5t-23.5 -9.5t-9.5 -23.5v-155v-2zM960 -128q26 0 45 19t19 45v2v155q0 14 -9.5 23.5t-23.5 9.5t-23.5 -9.5t-9.5 -23.5v-123q0 -13 -9.5 -22.5t-22.5 -9.5h-123q-14 0 -23.5 -9.5t-9.5 -23.5t9.5 -23.5t23.5 -9.5
h155h2zM958 896h-155q-14 0 -23.5 -9.5t-9.5 -23.5t9.5 -23.5t23.5 -9.5h123q13 0 22.5 -9.5t9.5 -22.5v-123q0 -14 9.5 -23.5t23.5 -9.5t23.5 9.5t9.5 23.5v155v2q0 26 -19 45t-45 19h-2zM192 640v-512q0 -26 19 -45t45 -19h512q26 0 45 19t19 45v512q0 26 -19 45t-45 19
h-512q-26 0 -45 -18.5t-19 -45.5zM738 126h-452q-13 0 -22.5 9.5t-9.5 22.5v452q0 13 9.5 22.5t22.5 9.5h452q13 0 22.5 -9.5t9.5 -22.5v-452q0 -13 -9.5 -22.5t-22.5 -9.5z" />
    <glyph glyph-name="uniE6B0" unicode="&#xe6b0;" horiz-adv-x="1025" 
d="M736 765q88 0 153 -65q33 -33 51 -77q19 -45 19 -95q-1 -56 -24 -105q-22 -47 -62 -80l-2 -2q-50 -45 -199 -181q-118 -108 -160 -145q-44 39 -242 220q-101 92 -110 99q-10 9 -10 10q-40 33 -62 81t-22 102q-1 50 18 95q18 44 51 77q65 66 153 66q50 0 95 -23t77 -64
q20 -25 52 -25t52 25q32 41 77 64t95 23zM736 830q-67 0 -125.5 -30t-98.5 -82q-40 52 -98.5 82t-125.5 30q-119 0 -204 -89.5t-84 -214.5q1 -69 29.5 -129.5t77.5 -102.5q3 -3 9 -8q10 -9 170 -154.5t205 -185.5q9 -8 21 -8t21 8q34 30 185 167.5t197 178.5q51 42 80 103.5
t29 131.5q0 125 -84.5 214t-203.5 89z" />
    <glyph glyph-name="uniE6B1" unicode="&#xe6b1;" 
d="M864 831h-704q-13 0 -22.5 -9t-9.5 -23v-832q0 -13 9.5 -22.5t22.5 -9.5h704q13 0 22.5 9.5t9.5 22.5v832q0 14 -9.5 23t-22.5 9zM832 -1h-640v768h640v-768zM288 449h448q13 0 22.5 9.5t9.5 22.5v190q0 13 -9.5 22.5t-22.5 9.5h-448q-13 0 -22.5 -9.5t-9.5 -22.5v-189
q0 -14 9.5 -23.5t22.5 -9.5zM320 639h384v-125h-384v125zM288 256h32v-32q0 -13 9 -22.5t23 -9.5q13 0 22.5 9.5t9.5 22.5v32h31q13 0 22.5 9.5t9.5 22.5t-9.5 22.5t-22.5 9.5h-31v32q0 13 -9.5 22.5t-22.5 9.5q-14 0 -23 -9.5t-9 -22.5v-32h-32q-13 0 -22.5 -9.5
t-9.5 -22.5t9.5 -22.5t22.5 -9.5zM288 63h127q13 0 22.5 9.5t9.5 22.5t-9.5 22.5t-22.5 9.5h-127q-13 0 -22.5 -9.5t-9.5 -22.5t9.5 -22.5t22.5 -9.5zM736 384h-127q-14 0 -23 -9.5t-9 -22.5t9 -22.5t23 -9.5h127q13 0 22.5 9.5t9.5 22.5t-9.5 22.5t-22.5 9.5zM736 255h-127
q-14 0 -23 -9.5t-9 -22.5q0 -14 9 -23t23 -9h127q13 0 22.5 9t9.5 23q0 13 -9.5 22.5t-22.5 9.5zM736 127h-127q-14 0 -23 -9.5t-9 -22.5t9 -22.5t23 -9.5h127q13 0 22.5 9.5t9.5 22.5t-9.5 22.5t-22.5 9.5z" />
    <glyph glyph-name="uniE6B2" unicode="&#xe6b2;" horiz-adv-x="1025" 
d="M359 256q10 0 17.5 -7.5t7.5 -17.5v-270v0q0 -10 -7.5 -17.5t-17.5 -7.5h-270q-10 0 -17.5 7.5t-7.5 17.5v270q0 10 7.5 17.5t17.5 7.5h270zM359 320h-270q-37 0 -63 -26t-26 -63v-270q0 -37 26 -63t63 -26h270q37 0 63 26t26 63v270q0 37 -26 63t-63 26zM359 832
q10 0 17.5 -7.5t7.5 -17.5v-270v0q0 -10 -7.5 -17.5t-17.5 -7.5h-270q-10 0 -17.5 7.5t-7.5 17.5v270q0 10 7.5 17.5t17.5 7.5h270zM359 896h-270q-37 0 -63 -26t-26 -63v-270q0 -37 26 -63t63 -26h270q37 0 63 26t26 63v270q0 37 -26 63t-63 26zM935 256q10 0 17.5 -7.5
t7.5 -17.5v-270v0q0 -10 -7.5 -17.5t-17.5 -7.5h-270q-10 0 -17.5 7.5t-7.5 17.5v270q0 10 7.5 17.5t17.5 7.5h270zM935 320h-270q-37 0 -63 -26t-26 -63v-270q0 -37 26 -63t63 -26h270q37 0 63 26t26 63v270q0 37 -26 63t-63 26zM935 832q10 0 17.5 -7.5t7.5 -17.5v-270v0
q0 -10 -7.5 -17.5t-17.5 -7.5h-270q-10 0 -17.5 7.5t-7.5 17.5v270q0 10 7.5 17.5t17.5 7.5h270zM935 896h-270q-37 0 -63 -26t-26 -63v-270q0 -37 26 -63t63 -26h270q37 0 63 26t26 63v270q0 37 -26 63t-63 26z" />
    <glyph glyph-name="uniE6B3" unicode="&#xe6b3;" 
d="M303 728q2 -10 1 -20l-1 -36l29 -23l214 -170l30 -24l37 12q44 15 90 15q49 0 95 -16q26 -10 51 -24l-169 -170l-43 -43l-13 -13l-169 -170q-27 45 -36 96q-13 72 10 141l12 37l-24 30l-170 214l-23 29l-36 -1h-2h-2q-8 0 -16 1zM318 831q-14 0 -24 -10l-219 -219
q-11 -11 -9.5 -27t14.5 -24q48 -31 104 -31h6l170 -215q-28 -84 -11.5 -175.5t74.5 -163.5q11 -13 27 -13q14 0 24 10l206 207l223 -223q10 -10 23.5 -10t23 9.5t9.5 23t-10 23.5l-223 223l206 207q11 11 10 26t-13 25q-98 80 -226 80q-57 0 -112 -18l-215 170q2 60 -30 110
q-10 15 -28 15z" />
    <glyph glyph-name="uniE6B4" unicode="&#xe6b4;" 
d="M104 457q15 0 25.5 10.5t10.5 25.5v236q0 12 9 21t21 9h690q13 0 21.5 -9t8.5 -21v-690q0 -12 -8.5 -21t-21.5 -9h-310q-15 0 -25.5 -10.5t-10.5 -25.5t10.5 -25.5t25.5 -10.5h310q42 0 72 30t30 72v690q0 42 -30 72t-72 30h-690q-42 0 -72 -30t-30 -72v-236
q0 -15 10.5 -25.5t25.5 -10.5zM76 168l231 -220q18 -17 39.5 -7.5t21.5 33.5v118q187 12 286 162q24 36 40.5 78t20 58t5.5 26q2 15 -7 27t-24 14q-2 1 -5 1q-13 0 -23.5 -9t-12.5 -22q-1 -7 -4 -21t-17 -49.5t-34 -64.5q-87 -129 -257 -130q-2 1 -4 1q-15 0 -25.5 -10.5
t-10.5 -25.5v-69l-141 134l141 118v-58q0 -15 10.5 -25.5t25.5 -10.5t25.5 10.5t10.5 25.5v134q0 23 -20 33q-8 3 -16 3q-13 0 -23 -8l-231 -192q-12 -11 -13 -27t11 -27z" />
    <glyph glyph-name="uniE6B5" unicode="&#xe6b5;" 
d="M949 -7l-223 223l206 207q11 11 10 26t-13 25q-72 58 -163 74t-175 -12l-215 170q2 60 -30 110q-9 13 -25 14.5t-27 -9.5l-219 -219q-11 -11 -9.5 -27t14.5 -24q50 -33 110 -31l170 -215q-28 -84 -11.5 -175.5t74.5 -163.5q10 -12 25 -13t26 10l206 207l223 -223
q10 -10 23.5 -10t23 9.5t9.5 23t-10 23.5z" />
    <glyph glyph-name="uniE6B6" unicode="&#xe6b6;" 
d="M900 510v192q0 17 -11.5 28.5t-28 11.5t-28.5 -11.5t-12 -28.5v-192q0 -92 -65 -157t-157 -65h-340l113 112q11 12 11 28.5t-11.5 28t-28 11.5t-28.5 -12l-178 -178q-12 -12 -12 -28.5t12 -28.5l183 -183q12 -12 28.5 -12t28.5 11.5t12 28t-12 28.5l-114 114h336
q125 0 213.5 88.5t88.5 213.5z" />
  </font>
</defs>
</svg>
